%TF.GenerationSoftware,KiCad,Pcbnew,(5.1.6)-1*%
%TF.CreationDate,2022-07-30T19:59:52+08:00*%
%TF.ProjectId,cloneduino_zero,636c6f6e-6564-4756-996e-6f5f7a65726f,1.0*%
%TF.SameCoordinates,Original*%
%TF.FileFunction,Copper,L4,Bot*%
%TF.FilePolarity,Positive*%
%FSLAX46Y46*%
G04 Gerber Fmt 4.6, Leading zero omitted, Abs format (unit mm)*
G04 Created by KiCad (PCBNEW (5.1.6)-1) date 2022-07-30 19:59:52*
%MOMM*%
%LPD*%
G01*
G04 APERTURE LIST*
%TA.AperFunction,ComponentPad*%
%ADD10R,1.700000X1.700000*%
%TD*%
%TA.AperFunction,ComponentPad*%
%ADD11C,0.100000*%
%TD*%
%TA.AperFunction,ComponentPad*%
%ADD12O,1.700000X1.700000*%
%TD*%
%TA.AperFunction,ComponentPad*%
%ADD13C,1.700000*%
%TD*%
%TA.AperFunction,ComponentPad*%
%ADD14O,2.100000X1.000000*%
%TD*%
%TA.AperFunction,ComponentPad*%
%ADD15O,1.600000X1.000000*%
%TD*%
%TA.AperFunction,ViaPad*%
%ADD16C,0.450000*%
%TD*%
%TA.AperFunction,Conductor*%
%ADD17C,0.500000*%
%TD*%
%TA.AperFunction,Conductor*%
%ADD18C,0.127000*%
%TD*%
G04 APERTURE END LIST*
D10*
%TO.P,J7,20*%
%TO.N,+5V*%
X49276000Y-83058000D03*
%TO.P,J7,19*%
%TO.N,+3V3*%
X51816000Y-83058000D03*
%TO.P,J7,18*%
%TO.N,GND*%
X54356000Y-83058000D03*
%TO.P,J7,17*%
%TO.N,/PB03*%
X56896000Y-83058000D03*
%TO.P,J7,16*%
%TO.N,/PB02*%
X59436000Y-83058000D03*
%TO.P,J7,15*%
%TO.N,/PA28*%
X61976000Y-83058000D03*
%TO.P,J7,14*%
%TO.N,/NRST*%
X64516000Y-83058000D03*
%TO.P,J7,13*%
%TO.N,/PA27*%
X67056000Y-83058000D03*
%TO.P,J7,12*%
%TO.N,/PB23*%
X69596000Y-83058000D03*
%TO.P,J7,11*%
%TO.N,/PB22*%
X72136000Y-83058000D03*
%TA.AperFunction,ComponentPad*%
D11*
%TO.P,J7,10*%
%TO.N,/USB_D+*%
G36*
X73826000Y-82208000D02*
G01*
X75526000Y-82208000D01*
X75526000Y-83908000D01*
X73826000Y-83908000D01*
X73826000Y-82208000D01*
G37*
%TD.AperFunction*%
D10*
%TO.P,J7,9*%
%TO.N,/USB_D-*%
X77216000Y-83058000D03*
%TO.P,J7,8*%
%TO.N,/PA23*%
X79756000Y-83058000D03*
%TO.P,J7,7*%
%TO.N,/PA22*%
X82296000Y-83058000D03*
%TO.P,J7,6*%
%TO.N,/PA21*%
X84836000Y-83058000D03*
%TO.P,J7,5*%
%TO.N,/PA20*%
X87376000Y-83058000D03*
%TO.P,J7,4*%
%TO.N,/PA19*%
X89916000Y-83058000D03*
%TO.P,J7,3*%
%TO.N,/PA18*%
X92456000Y-83058000D03*
%TO.P,J7,2*%
%TO.N,/PA17*%
X94996000Y-83058000D03*
%TO.P,J7,1*%
%TO.N,/PA16*%
X97536000Y-83058000D03*
%TD*%
%TO.P,J6,20*%
%TO.N,/PA15*%
X97536000Y-105410000D03*
%TO.P,J6,19*%
%TO.N,/PA14*%
X94996000Y-105410000D03*
%TO.P,J6,18*%
%TO.N,/PA12*%
X92456000Y-105410000D03*
%TO.P,J6,17*%
%TO.N,/PB11*%
X89916000Y-105410000D03*
%TO.P,J6,16*%
%TO.N,/PB10*%
X87376000Y-105410000D03*
%TO.P,J6,15*%
%TO.N,/PA11*%
X84836000Y-105410000D03*
%TO.P,J6,14*%
%TO.N,/PA10*%
X82296000Y-105410000D03*
%TO.P,J6,13*%
%TO.N,/PA09*%
X79756000Y-105410000D03*
%TO.P,J6,12*%
%TO.N,/PA08*%
X77216000Y-105410000D03*
%TO.P,J6,11*%
%TO.N,/PA07*%
X74676000Y-105410000D03*
%TO.P,J6,10*%
%TO.N,/PA06*%
X72136000Y-105410000D03*
%TO.P,J6,9*%
%TO.N,/PA05*%
X69596000Y-105410000D03*
%TO.P,J6,8*%
%TO.N,/PA04*%
X67056000Y-105410000D03*
%TO.P,J6,7*%
%TO.N,/PB09*%
X64516000Y-105410000D03*
%TO.P,J6,6*%
%TO.N,/PB08*%
X61976000Y-105410000D03*
%TO.P,J6,5*%
%TO.N,/PA03*%
X59436000Y-105410000D03*
%TO.P,J6,4*%
%TO.N,/PA02*%
X56896000Y-105410000D03*
%TO.P,J6,3*%
%TO.N,GND*%
X54356000Y-105410000D03*
%TO.P,J6,2*%
%TO.N,+3V3*%
X51816000Y-105410000D03*
%TO.P,J6,1*%
%TO.N,+5V*%
X49276000Y-105410000D03*
%TD*%
D12*
%TO.P,J4,20*%
%TO.N,+5V*%
X49276000Y-85344000D03*
%TO.P,J4,19*%
%TO.N,+3V3*%
X51816000Y-85344000D03*
%TO.P,J4,18*%
%TO.N,GND*%
X54356000Y-85344000D03*
%TO.P,J4,17*%
%TO.N,/PB03*%
X56896000Y-85344000D03*
%TO.P,J4,16*%
%TO.N,/PB02*%
X59436000Y-85344000D03*
%TO.P,J4,15*%
%TO.N,/PA28*%
X61976000Y-85344000D03*
%TO.P,J4,14*%
%TO.N,/NRST*%
X64516000Y-85344000D03*
%TO.P,J4,13*%
%TO.N,/PA27*%
X67056000Y-85344000D03*
%TO.P,J4,12*%
%TO.N,/PB23*%
X69596000Y-85344000D03*
%TO.P,J4,11*%
%TO.N,/PB22*%
X72136000Y-85344000D03*
%TO.P,J4,10*%
%TO.N,/USB_D+*%
X74676000Y-85344000D03*
%TO.P,J4,9*%
%TO.N,/USB_D-*%
X77216000Y-85344000D03*
%TO.P,J4,8*%
%TO.N,/PA23*%
X79756000Y-85344000D03*
%TO.P,J4,7*%
%TO.N,/PA22*%
X82296000Y-85344000D03*
%TO.P,J4,6*%
%TO.N,/PA21*%
X84836000Y-85344000D03*
%TO.P,J4,5*%
%TO.N,/PA20*%
X87376000Y-85344000D03*
%TO.P,J4,4*%
%TO.N,/PA19*%
X89916000Y-85344000D03*
%TO.P,J4,3*%
%TO.N,/PA18*%
X92456000Y-85344000D03*
%TO.P,J4,2*%
%TO.N,/PA17*%
X94996000Y-85344000D03*
D13*
%TO.P,J4,1*%
%TO.N,/PA16*%
X97536000Y-85344000D03*
%TD*%
D14*
%TO.P,J1,S1*%
%TO.N,GND*%
X53930000Y-98554000D03*
X53930000Y-89914000D03*
D15*
X49750000Y-89914000D03*
X49750000Y-98554000D03*
%TD*%
D12*
%TO.P,J5,4*%
%TO.N,GND*%
X84836000Y-97790000D03*
%TO.P,J5,3*%
%TO.N,/PA31*%
X84836000Y-95250000D03*
%TO.P,J5,2*%
%TO.N,/PA30*%
X84836000Y-92710000D03*
D13*
%TO.P,J5,1*%
%TO.N,+3V3*%
X84836000Y-90170000D03*
%TD*%
D12*
%TO.P,J3,20*%
%TO.N,/PA15*%
X97536000Y-103124000D03*
%TO.P,J3,19*%
%TO.N,/PA14*%
X94996000Y-103124000D03*
%TO.P,J3,18*%
%TO.N,/PA12*%
X92456000Y-103124000D03*
%TO.P,J3,17*%
%TO.N,/PB11*%
X89916000Y-103124000D03*
%TO.P,J3,16*%
%TO.N,/PB10*%
X87376000Y-103124000D03*
%TO.P,J3,15*%
%TO.N,/PA11*%
X84836000Y-103124000D03*
%TO.P,J3,14*%
%TO.N,/PA10*%
X82296000Y-103124000D03*
%TO.P,J3,13*%
%TO.N,/PA09*%
X79756000Y-103124000D03*
%TO.P,J3,12*%
%TO.N,/PA08*%
X77216000Y-103124000D03*
%TO.P,J3,11*%
%TO.N,/PA07*%
X74676000Y-103124000D03*
%TO.P,J3,10*%
%TO.N,/PA06*%
X72136000Y-103124000D03*
%TO.P,J3,9*%
%TO.N,/PA05*%
X69596000Y-103124000D03*
%TO.P,J3,8*%
%TO.N,/PA04*%
X67056000Y-103124000D03*
%TO.P,J3,7*%
%TO.N,/PB09*%
X64516000Y-103124000D03*
%TO.P,J3,6*%
%TO.N,/PB08*%
X61976000Y-103124000D03*
%TO.P,J3,5*%
%TO.N,/PA03*%
X59436000Y-103124000D03*
%TO.P,J3,4*%
%TO.N,/PA02*%
X56896000Y-103124000D03*
%TO.P,J3,3*%
%TO.N,GND*%
X54356000Y-103124000D03*
%TO.P,J3,2*%
%TO.N,+3V3*%
X51816000Y-103124000D03*
D13*
%TO.P,J3,1*%
%TO.N,+5V*%
X49276000Y-103124000D03*
%TD*%
D16*
%TO.N,GND*%
X73406000Y-89027000D03*
X96266000Y-96629000D03*
X57658000Y-93726000D03*
X62484000Y-97028000D03*
X78613000Y-94234000D03*
X78740000Y-100330000D03*
X65214500Y-98869500D03*
X68072000Y-88684053D03*
X57658000Y-94742000D03*
X90322000Y-88494000D03*
X67183000Y-89535000D03*
X73406000Y-99441000D03*
X69342000Y-100838000D03*
%TO.N,+5V*%
X56035990Y-96684000D03*
X55955496Y-91769496D03*
%TO.N,+3V3*%
X75184000Y-88519000D03*
X62738000Y-93284000D03*
X96266000Y-94429000D03*
X59228000Y-99141000D03*
X76644500Y-98488500D03*
X65659000Y-101346000D03*
X67183000Y-88646000D03*
%TO.N,/NRST*%
X69599022Y-88642978D03*
X81280000Y-94234000D03*
%TO.N,/USB_D-*%
X56134000Y-94742000D03*
X53582000Y-93484000D03*
X77343000Y-88805100D03*
%TO.N,/USB_D+*%
X76708000Y-88138000D03*
X56134000Y-93726000D03*
X53594000Y-94996000D03*
%TO.N,/PA02*%
X68072000Y-97409000D03*
%TO.N,/PA03*%
X68707000Y-97155000D03*
%TO.N,/PB08*%
X69215000Y-98171000D03*
%TO.N,/PB09*%
X69723000Y-98679000D03*
%TO.N,/PA04*%
X70231000Y-99187000D03*
%TO.N,/PA05*%
X70764491Y-99695000D03*
%TO.N,/PA07*%
X71882000Y-100457000D03*
%TO.N,/PA08*%
X75438000Y-100838000D03*
%TO.N,/PB10*%
X96266000Y-93345000D03*
%TO.N,/PB11*%
X96266000Y-95529000D03*
%TO.N,/PA12*%
X96266000Y-97729000D03*
%TO.N,/PB03*%
X66230500Y-91948000D03*
%TO.N,/PB02*%
X66802000Y-91440000D03*
%TO.N,/PA31*%
X66230500Y-90678000D03*
%TO.N,/PA30*%
X66548000Y-89916000D03*
%TO.N,/PB22*%
X71358183Y-88280817D03*
%TO.N,/PA23*%
X77133659Y-89452659D03*
%TO.N,/PA17*%
X62992000Y-99822000D03*
%TO.N,/PA13*%
X79160076Y-97496924D03*
X96266000Y-92202000D03*
%TD*%
D17*
%TO.N,GND*%
X54356000Y-85630990D02*
X54356000Y-83820000D01*
X54356000Y-103124000D02*
X54356000Y-104924990D01*
%TO.N,+5V*%
X49276000Y-85630990D02*
X49276000Y-83820000D01*
X49276000Y-103124000D02*
X49276000Y-104924990D01*
%TO.N,+3V3*%
X51816000Y-85630990D02*
X51816000Y-83820000D01*
X51816000Y-103124000D02*
X51816000Y-104924990D01*
%TO.N,/NRST*%
X64516000Y-85630990D02*
X64516000Y-83820000D01*
D18*
%TO.N,/USB_D-*%
X77343000Y-88805100D02*
X77026199Y-88805100D01*
X59003938Y-94539062D02*
X59892938Y-94539062D01*
X77026199Y-88805100D02*
X71292237Y-94539062D01*
X71292237Y-94539062D02*
X59892938Y-94539062D01*
X59892938Y-94539062D02*
X59690599Y-94539062D01*
X56134000Y-94742000D02*
X56642000Y-95250000D01*
X58285001Y-95242001D02*
X58300999Y-95242001D01*
X56642000Y-95250000D02*
X58293000Y-95250000D01*
X58293000Y-95250000D02*
X58285001Y-95242001D01*
X58300999Y-95242001D02*
X59003938Y-94539062D01*
D17*
X77216000Y-85630990D02*
X77216000Y-83820000D01*
D18*
%TO.N,/USB_D+*%
X60784122Y-94085928D02*
X60757702Y-94076684D01*
X60714209Y-94041999D02*
X60699316Y-94018298D01*
X60734001Y-94061791D02*
X60714209Y-94041999D01*
X60016173Y-94076684D02*
X59989753Y-94085928D01*
X60639874Y-93866334D02*
X60616173Y-93851441D01*
X59989753Y-94085928D02*
X59961938Y-94089062D01*
X60039874Y-94061791D02*
X60016173Y-94076684D01*
X60099316Y-93909827D02*
X60090072Y-93936247D01*
X60659666Y-93886126D02*
X60639874Y-93866334D01*
X60074559Y-94018298D02*
X60059666Y-94041999D01*
X59684170Y-94095491D02*
X59130971Y-94095491D01*
X59690599Y-94089062D02*
X59684170Y-94095491D01*
X60059666Y-94041999D02*
X60039874Y-94061791D01*
X60134001Y-93866334D02*
X60114209Y-93886126D01*
X71105839Y-94089062D02*
X60811938Y-94089062D01*
X56134000Y-93726000D02*
X56634001Y-93225999D01*
X60811938Y-94089062D02*
X60784122Y-94085928D01*
X60184122Y-93842197D02*
X60157702Y-93851441D01*
X60114209Y-93886126D02*
X60099316Y-93909827D01*
X76708000Y-88138000D02*
X76708000Y-88486901D01*
X60211938Y-93839062D02*
X60184122Y-93842197D01*
X60589753Y-93842197D02*
X60561938Y-93839062D01*
X60757702Y-94076684D02*
X60734001Y-94061791D01*
X60616173Y-93851441D02*
X60589753Y-93842197D01*
X59961938Y-94089062D02*
X59690599Y-94089062D01*
X58261480Y-93225999D02*
X56634001Y-93225999D01*
X60090072Y-93936247D02*
X60083803Y-93991878D01*
X60699316Y-94018298D02*
X60690072Y-93991878D01*
X59130971Y-94095491D02*
X58261480Y-93225999D01*
X60683803Y-93936247D02*
X60674559Y-93909827D01*
X60083803Y-93991878D02*
X60074559Y-94018298D01*
X60674559Y-93909827D02*
X60659666Y-93886126D01*
X60690072Y-93991878D02*
X60683803Y-93936247D01*
X76708000Y-88486901D02*
X71105839Y-94089062D01*
X60157702Y-93851441D02*
X60134001Y-93866334D01*
X60561938Y-93839062D02*
X60211938Y-93839062D01*
D17*
X74676000Y-85630990D02*
X74676000Y-83820000D01*
D18*
%TO.N,/PA02*%
X56896000Y-103124000D02*
X58336511Y-101683489D01*
X58336511Y-101683489D02*
X62491591Y-101683489D01*
X68072000Y-98298000D02*
X66548000Y-99822000D01*
X64353080Y-99822000D02*
X65024000Y-99822000D01*
X62491591Y-101683489D02*
X64353080Y-99822000D01*
X66548000Y-99822000D02*
X66294000Y-99822000D01*
X68072000Y-97409000D02*
X68072000Y-98298000D01*
X66294000Y-99822000D02*
X65024000Y-99822000D01*
D17*
X56896000Y-103124000D02*
X56896000Y-104924990D01*
D18*
%TO.N,/PA03*%
X65204990Y-100149010D02*
X65839990Y-100149010D01*
X59436000Y-103124000D02*
X60549501Y-102010499D01*
X68399010Y-98433451D02*
X67645460Y-99187000D01*
X62627041Y-102010499D02*
X64488530Y-100149010D01*
X68707000Y-97609010D02*
X68399010Y-97917000D01*
X68399010Y-97917000D02*
X68399010Y-98433451D01*
X68399010Y-98433451D02*
X66683451Y-100149010D01*
X68707000Y-97155000D02*
X68707000Y-97609010D01*
X68707000Y-97536000D02*
X68707000Y-97155000D01*
X60549501Y-102010499D02*
X62627041Y-102010499D01*
X68707000Y-97545510D02*
X68707000Y-97155000D01*
X64488530Y-100149010D02*
X65204990Y-100149010D01*
X66683451Y-100149010D02*
X65839990Y-100149010D01*
X68707000Y-97409000D02*
X68707000Y-97536000D01*
D17*
X59436000Y-103124000D02*
X59436000Y-104924990D01*
D18*
%TO.N,/PB08*%
X63055500Y-102044500D02*
X63101039Y-101998961D01*
X66274980Y-100476020D02*
X65893980Y-100476020D01*
X61976000Y-103124000D02*
X63055500Y-102044500D01*
X69215000Y-98171000D02*
X69123922Y-98171000D01*
X68961000Y-98333922D02*
X68724961Y-98569961D01*
X66818902Y-100476020D02*
X66274980Y-100476020D01*
X66655980Y-100476020D02*
X66274980Y-100476020D01*
X63055500Y-102044500D02*
X64623980Y-100476020D01*
X69123922Y-98171000D02*
X68961000Y-98333922D01*
X65893980Y-100476020D02*
X64623980Y-100476020D01*
X68724961Y-98569961D02*
X66818902Y-100476020D01*
D17*
X61976000Y-103124000D02*
X61976000Y-104924990D01*
D18*
%TO.N,/PB09*%
X68702191Y-99055191D02*
X64633382Y-103124000D01*
X64633382Y-103124000D02*
X64516000Y-103124000D01*
X69723000Y-98679000D02*
X69346809Y-99055191D01*
X69346809Y-99055191D02*
X68702191Y-99055191D01*
D17*
X64516000Y-103124000D02*
X64516000Y-104924990D01*
D18*
%TO.N,/PA04*%
X70035799Y-99382201D02*
X68892799Y-99382201D01*
X70231000Y-99187000D02*
X70035799Y-99382201D01*
X68892799Y-99382201D02*
X68770500Y-99504500D01*
X68770500Y-99504500D02*
X67119500Y-101155500D01*
X67056000Y-101219000D02*
X67119500Y-101155500D01*
X67119500Y-101155500D02*
X67310000Y-100965000D01*
X67310000Y-100965000D02*
X67310000Y-100909842D01*
X67056000Y-103124000D02*
X67056000Y-101219000D01*
X67056000Y-103124000D02*
X67056000Y-103073018D01*
D17*
X67056000Y-103124000D02*
X67056000Y-104924990D01*
D18*
%TO.N,/PA05*%
X70764491Y-101955509D02*
X69596000Y-103124000D01*
X70764491Y-99695000D02*
X70764491Y-101955509D01*
D17*
X69596000Y-103124000D02*
X69596000Y-104924990D01*
%TO.N,/PA06*%
X72136000Y-103124000D02*
X72136000Y-104924990D01*
D18*
%TO.N,/PA07*%
X74549000Y-103124000D02*
X74676000Y-103124000D01*
X71882000Y-100457000D02*
X74549000Y-103124000D01*
D17*
X74676000Y-103124000D02*
X74676000Y-104924990D01*
D18*
%TO.N,/PA08*%
X75438000Y-101346000D02*
X77216000Y-103124000D01*
X75438000Y-100838000D02*
X75438000Y-101346000D01*
D17*
X77216000Y-103124000D02*
X77216000Y-104924990D01*
D18*
%TO.N,/PA09*%
X79502000Y-103124000D02*
X79756000Y-103124000D01*
D17*
X79756000Y-103124000D02*
X79756000Y-104924990D01*
%TO.N,/PA10*%
X82296000Y-103124000D02*
X82296000Y-104924990D01*
%TO.N,/PA11*%
X84836000Y-103124000D02*
X84836000Y-104924990D01*
D18*
%TO.N,/PB10*%
X87376000Y-101854000D02*
X87376000Y-103124000D01*
X96393000Y-93345000D02*
X96393000Y-93345000D01*
X95377000Y-95955541D02*
X91764541Y-99568000D01*
X89662000Y-99568000D02*
X87376000Y-101854000D01*
X96393000Y-93345000D02*
X95377000Y-94361000D01*
X91764541Y-99568000D02*
X89662000Y-99568000D01*
X95377000Y-94361000D02*
X95377000Y-95955541D01*
D17*
X87376000Y-103124000D02*
X87376000Y-104924990D01*
D18*
%TO.N,/PB11*%
X96266000Y-95529000D02*
X89916000Y-101879000D01*
X89916000Y-101879000D02*
X89916000Y-103124000D01*
D17*
X89916000Y-103124000D02*
X89916000Y-104924990D01*
D18*
%TO.N,/PA12*%
X94549000Y-97729000D02*
X96266000Y-97729000D01*
X92456000Y-103124000D02*
X92456000Y-99822000D01*
X96327000Y-97729000D02*
X96327000Y-97729000D01*
X92456000Y-99822000D02*
X94549000Y-97729000D01*
D17*
X92456000Y-103124000D02*
X92456000Y-104924990D01*
%TO.N,/PA14*%
X94996000Y-103124000D02*
X94996000Y-104924990D01*
%TO.N,/PA15*%
X97536000Y-103124000D02*
X97536000Y-104924990D01*
D18*
%TO.N,/PB03*%
X63500000Y-91948000D02*
X56896000Y-85344000D01*
X66230500Y-91948000D02*
X63500000Y-91948000D01*
D17*
X56896000Y-85630990D02*
X56896000Y-83820000D01*
D18*
%TO.N,/PB02*%
X66802000Y-91440000D02*
X65532000Y-91440000D01*
X65532000Y-91440000D02*
X59436000Y-85344000D01*
D17*
X59436000Y-85630990D02*
X59436000Y-83820000D01*
%TO.N,/PA28*%
X61976000Y-85630990D02*
X61976000Y-83820000D01*
D18*
%TO.N,/PA27*%
X67056000Y-85394982D02*
X67056000Y-85344000D01*
D17*
X67056000Y-85630990D02*
X67056000Y-83820000D01*
%TO.N,/PB23*%
X69596000Y-85630990D02*
X69596000Y-83820000D01*
D18*
%TO.N,/PB22*%
X71358183Y-86121817D02*
X72136000Y-85344000D01*
X71358183Y-88280817D02*
X71358183Y-86121817D01*
D17*
X72136000Y-85630990D02*
X72136000Y-83820000D01*
D18*
%TO.N,/PA23*%
X77416501Y-89452659D02*
X77133659Y-89452659D01*
X78613000Y-86487000D02*
X78613000Y-88256160D01*
X78613000Y-88256160D02*
X77416501Y-89452659D01*
X79756000Y-85344000D02*
X78613000Y-86487000D01*
D17*
X79756000Y-85630990D02*
X79756000Y-83820000D01*
%TO.N,/PA22*%
X82296000Y-85630990D02*
X82296000Y-83820000D01*
%TO.N,/PA21*%
X84836000Y-85630990D02*
X84836000Y-83820000D01*
%TO.N,/PA20*%
X87376000Y-85630990D02*
X87376000Y-83820000D01*
%TO.N,/PA19*%
X89916000Y-85630990D02*
X89916000Y-83820000D01*
%TO.N,/PA18*%
X92456000Y-85630990D02*
X92456000Y-83820000D01*
D18*
%TO.N,/PA17*%
X94996000Y-85344000D02*
X93218000Y-87122000D01*
D17*
X94996000Y-85630990D02*
X94996000Y-83820000D01*
%TO.N,/PA16*%
X97536000Y-85630990D02*
X97536000Y-83820000D01*
D18*
%TO.N,/PA13*%
X96393000Y-92202000D02*
X96393000Y-92202000D01*
X80904142Y-99240990D02*
X79223576Y-97560424D01*
X95049990Y-95820090D02*
X91629090Y-99240990D01*
X95049990Y-93545010D02*
X95049990Y-95820090D01*
X96393000Y-92202000D02*
X95049990Y-93545010D01*
X91629090Y-99240990D02*
X80904142Y-99240990D01*
%TD*%
M02*
