%TF.GenerationSoftware,KiCad,Pcbnew,(5.1.6)-1*%
%TF.CreationDate,2022-07-03T21:07:17+08:00*%
%TF.ProjectId,cloneduino_zero,636c6f6e-6564-4756-996e-6f5f7a65726f,1.0*%
%TF.SameCoordinates,Original*%
%TF.FileFunction,Paste,Top*%
%TF.FilePolarity,Positive*%
%FSLAX46Y46*%
G04 Gerber Fmt 4.6, Leading zero omitted, Abs format (unit mm)*
G04 Created by KiCad (PCBNEW (5.1.6)-1) date 2022-07-03 21:07:17*
%MOMM*%
%LPD*%
G01*
G04 APERTURE LIST*
%ADD10C,0.100000*%
%ADD11R,1.060000X0.650000*%
%ADD12R,1.450000X0.600000*%
%ADD13R,1.450000X0.300000*%
%ADD14R,1.100000X0.850000*%
%ADD15R,1.100000X0.750000*%
%ADD16R,1.800000X1.170000*%
%ADD17R,1.350000X1.550000*%
%ADD18R,1.000000X1.200000*%
%ADD19R,1.350000X1.900000*%
G04 APERTURE END LIST*
%TO.C,C6*%
G36*
G01*
X61030500Y-97284250D02*
X61030500Y-96771750D01*
G75*
G02*
X61249250Y-96553000I218750J0D01*
G01*
X61686750Y-96553000D01*
G75*
G02*
X61905500Y-96771750I0J-218750D01*
G01*
X61905500Y-97284250D01*
G75*
G02*
X61686750Y-97503000I-218750J0D01*
G01*
X61249250Y-97503000D01*
G75*
G02*
X61030500Y-97284250I0J218750D01*
G01*
G37*
G36*
G01*
X59455500Y-97284250D02*
X59455500Y-96771750D01*
G75*
G02*
X59674250Y-96553000I218750J0D01*
G01*
X60111750Y-96553000D01*
G75*
G02*
X60330500Y-96771750I0J-218750D01*
G01*
X60330500Y-97284250D01*
G75*
G02*
X60111750Y-97503000I-218750J0D01*
G01*
X59674250Y-97503000D01*
G75*
G02*
X59455500Y-97284250I0J218750D01*
G01*
G37*
%TD*%
%TO.C,C8*%
G36*
G01*
X64637500Y-93220250D02*
X64637500Y-92707750D01*
G75*
G02*
X64856250Y-92489000I218750J0D01*
G01*
X65293750Y-92489000D01*
G75*
G02*
X65512500Y-92707750I0J-218750D01*
G01*
X65512500Y-93220250D01*
G75*
G02*
X65293750Y-93439000I-218750J0D01*
G01*
X64856250Y-93439000D01*
G75*
G02*
X64637500Y-93220250I0J218750D01*
G01*
G37*
G36*
G01*
X63062500Y-93220250D02*
X63062500Y-92707750D01*
G75*
G02*
X63281250Y-92489000I218750J0D01*
G01*
X63718750Y-92489000D01*
G75*
G02*
X63937500Y-92707750I0J-218750D01*
G01*
X63937500Y-93220250D01*
G75*
G02*
X63718750Y-93439000I-218750J0D01*
G01*
X63281250Y-93439000D01*
G75*
G02*
X63062500Y-93220250I0J218750D01*
G01*
G37*
%TD*%
%TO.C,C10*%
G36*
G01*
X64439428Y-98338379D02*
X64683380Y-98094428D01*
G75*
G02*
X64891976Y-98094428I104298J-104298D01*
G01*
X65100572Y-98303024D01*
G75*
G02*
X65100572Y-98511620I-104298J-104298D01*
G01*
X64856620Y-98755572D01*
G75*
G02*
X64648024Y-98755572I-104298J104298D01*
G01*
X64439428Y-98546976D01*
G75*
G02*
X64439428Y-98338380I104298J104298D01*
G01*
G37*
G36*
G01*
X63753534Y-97652485D02*
X63997486Y-97408534D01*
G75*
G02*
X64206082Y-97408534I104298J-104298D01*
G01*
X64414678Y-97617130D01*
G75*
G02*
X64414678Y-97825726I-104298J-104298D01*
G01*
X64170726Y-98069678D01*
G75*
G02*
X63962130Y-98069678I-104298J104298D01*
G01*
X63753534Y-97861082D01*
G75*
G02*
X63753534Y-97652486I104298J104298D01*
G01*
G37*
%TD*%
%TO.C,C3*%
G36*
G01*
X68097678Y-90205727D02*
X67853726Y-90449678D01*
G75*
G02*
X67645130Y-90449678I-104298J104298D01*
G01*
X67436534Y-90241082D01*
G75*
G02*
X67436534Y-90032486I104298J104298D01*
G01*
X67680486Y-89788534D01*
G75*
G02*
X67889082Y-89788534I104298J-104298D01*
G01*
X68097678Y-89997130D01*
G75*
G02*
X68097678Y-90205726I-104298J-104298D01*
G01*
G37*
G36*
G01*
X68783572Y-90891621D02*
X68539620Y-91135572D01*
G75*
G02*
X68331024Y-91135572I-104298J104298D01*
G01*
X68122428Y-90926976D01*
G75*
G02*
X68122428Y-90718380I104298J104298D01*
G01*
X68366380Y-90474428D01*
G75*
G02*
X68574976Y-90474428I104298J-104298D01*
G01*
X68783572Y-90683024D01*
G75*
G02*
X68783572Y-90891620I-104298J-104298D01*
G01*
G37*
%TD*%
%TO.C,C1*%
G36*
G01*
X77444322Y-99532273D02*
X77688274Y-99288322D01*
G75*
G02*
X77896870Y-99288322I104298J-104298D01*
G01*
X78105466Y-99496918D01*
G75*
G02*
X78105466Y-99705514I-104298J-104298D01*
G01*
X77861514Y-99949466D01*
G75*
G02*
X77652918Y-99949466I-104298J104298D01*
G01*
X77444322Y-99740870D01*
G75*
G02*
X77444322Y-99532274I104298J104298D01*
G01*
G37*
G36*
G01*
X76758428Y-98846379D02*
X77002380Y-98602428D01*
G75*
G02*
X77210976Y-98602428I104298J-104298D01*
G01*
X77419572Y-98811024D01*
G75*
G02*
X77419572Y-99019620I-104298J-104298D01*
G01*
X77175620Y-99263572D01*
G75*
G02*
X76967024Y-99263572I-104298J104298D01*
G01*
X76758428Y-99054976D01*
G75*
G02*
X76758428Y-98846380I104298J104298D01*
G01*
G37*
%TD*%
D10*
%TO.C,U2*%
G36*
X68945179Y-93469211D02*
G01*
X68768402Y-93645988D01*
X67849163Y-92726749D01*
X68025940Y-92549972D01*
X68945179Y-93469211D01*
G37*
G36*
X69298732Y-93115658D02*
G01*
X69121955Y-93292435D01*
X68202716Y-92373196D01*
X68379493Y-92196419D01*
X69298732Y-93115658D01*
G37*
G36*
X69652286Y-92762104D02*
G01*
X69475509Y-92938881D01*
X68556270Y-92019642D01*
X68733047Y-91842865D01*
X69652286Y-92762104D01*
G37*
G36*
X70005839Y-92408551D02*
G01*
X69829062Y-92585328D01*
X68909823Y-91666089D01*
X69086600Y-91489312D01*
X70005839Y-92408551D01*
G37*
G36*
X70359392Y-92054998D02*
G01*
X70182615Y-92231775D01*
X69263376Y-91312536D01*
X69440153Y-91135759D01*
X70359392Y-92054998D01*
G37*
G36*
X70712946Y-91701444D02*
G01*
X70536169Y-91878221D01*
X69616930Y-90958982D01*
X69793707Y-90782205D01*
X70712946Y-91701444D01*
G37*
G36*
X71066499Y-91347891D02*
G01*
X70889722Y-91524668D01*
X69970483Y-90605429D01*
X70147260Y-90428652D01*
X71066499Y-91347891D01*
G37*
G36*
X71420053Y-90994337D02*
G01*
X71243276Y-91171114D01*
X70324037Y-90251875D01*
X70500814Y-90075098D01*
X71420053Y-90994337D01*
G37*
G36*
X71773606Y-90640784D02*
G01*
X71596829Y-90817561D01*
X70677590Y-89898322D01*
X70854367Y-89721545D01*
X71773606Y-90640784D01*
G37*
G36*
X72127159Y-90287231D02*
G01*
X71950382Y-90464008D01*
X71031143Y-89544769D01*
X71207920Y-89367992D01*
X72127159Y-90287231D01*
G37*
G36*
X72480713Y-89933677D02*
G01*
X72303936Y-90110454D01*
X71384697Y-89191215D01*
X71561474Y-89014438D01*
X72480713Y-89933677D01*
G37*
G36*
X72834266Y-89580124D02*
G01*
X72657489Y-89756901D01*
X71738250Y-88837662D01*
X71915027Y-88660885D01*
X72834266Y-89580124D01*
G37*
G36*
X74177769Y-89756901D02*
G01*
X74000992Y-89580124D01*
X74920231Y-88660885D01*
X75097008Y-88837662D01*
X74177769Y-89756901D01*
G37*
G36*
X74531322Y-90110454D02*
G01*
X74354545Y-89933677D01*
X75273784Y-89014438D01*
X75450561Y-89191215D01*
X74531322Y-90110454D01*
G37*
G36*
X74884876Y-90464008D02*
G01*
X74708099Y-90287231D01*
X75627338Y-89367992D01*
X75804115Y-89544769D01*
X74884876Y-90464008D01*
G37*
G36*
X75238429Y-90817561D02*
G01*
X75061652Y-90640784D01*
X75980891Y-89721545D01*
X76157668Y-89898322D01*
X75238429Y-90817561D01*
G37*
G36*
X75591982Y-91171114D02*
G01*
X75415205Y-90994337D01*
X76334444Y-90075098D01*
X76511221Y-90251875D01*
X75591982Y-91171114D01*
G37*
G36*
X75945536Y-91524668D02*
G01*
X75768759Y-91347891D01*
X76687998Y-90428652D01*
X76864775Y-90605429D01*
X75945536Y-91524668D01*
G37*
G36*
X76299089Y-91878221D02*
G01*
X76122312Y-91701444D01*
X77041551Y-90782205D01*
X77218328Y-90958982D01*
X76299089Y-91878221D01*
G37*
G36*
X76652643Y-92231775D02*
G01*
X76475866Y-92054998D01*
X77395105Y-91135759D01*
X77571882Y-91312536D01*
X76652643Y-92231775D01*
G37*
G36*
X77006196Y-92585328D02*
G01*
X76829419Y-92408551D01*
X77748658Y-91489312D01*
X77925435Y-91666089D01*
X77006196Y-92585328D01*
G37*
G36*
X77359749Y-92938881D02*
G01*
X77182972Y-92762104D01*
X78102211Y-91842865D01*
X78278988Y-92019642D01*
X77359749Y-92938881D01*
G37*
G36*
X77713303Y-93292435D02*
G01*
X77536526Y-93115658D01*
X78455765Y-92196419D01*
X78632542Y-92373196D01*
X77713303Y-93292435D01*
G37*
G36*
X78066856Y-93645988D02*
G01*
X77890079Y-93469211D01*
X78809318Y-92549972D01*
X78986095Y-92726749D01*
X78066856Y-93645988D01*
G37*
G36*
X78986095Y-95731953D02*
G01*
X78809318Y-95908730D01*
X77890079Y-94989491D01*
X78066856Y-94812714D01*
X78986095Y-95731953D01*
G37*
G36*
X78632542Y-96085506D02*
G01*
X78455765Y-96262283D01*
X77536526Y-95343044D01*
X77713303Y-95166267D01*
X78632542Y-96085506D01*
G37*
G36*
X78278988Y-96439060D02*
G01*
X78102211Y-96615837D01*
X77182972Y-95696598D01*
X77359749Y-95519821D01*
X78278988Y-96439060D01*
G37*
G36*
X77925435Y-96792613D02*
G01*
X77748658Y-96969390D01*
X76829419Y-96050151D01*
X77006196Y-95873374D01*
X77925435Y-96792613D01*
G37*
G36*
X77571882Y-97146166D02*
G01*
X77395105Y-97322943D01*
X76475866Y-96403704D01*
X76652643Y-96226927D01*
X77571882Y-97146166D01*
G37*
G36*
X77218328Y-97499720D02*
G01*
X77041551Y-97676497D01*
X76122312Y-96757258D01*
X76299089Y-96580481D01*
X77218328Y-97499720D01*
G37*
G36*
X76864775Y-97853273D02*
G01*
X76687998Y-98030050D01*
X75768759Y-97110811D01*
X75945536Y-96934034D01*
X76864775Y-97853273D01*
G37*
G36*
X76511221Y-98206827D02*
G01*
X76334444Y-98383604D01*
X75415205Y-97464365D01*
X75591982Y-97287588D01*
X76511221Y-98206827D01*
G37*
G36*
X76157668Y-98560380D02*
G01*
X75980891Y-98737157D01*
X75061652Y-97817918D01*
X75238429Y-97641141D01*
X76157668Y-98560380D01*
G37*
G36*
X75804115Y-98913933D02*
G01*
X75627338Y-99090710D01*
X74708099Y-98171471D01*
X74884876Y-97994694D01*
X75804115Y-98913933D01*
G37*
G36*
X75450561Y-99267487D02*
G01*
X75273784Y-99444264D01*
X74354545Y-98525025D01*
X74531322Y-98348248D01*
X75450561Y-99267487D01*
G37*
G36*
X75097008Y-99621040D02*
G01*
X74920231Y-99797817D01*
X74000992Y-98878578D01*
X74177769Y-98701801D01*
X75097008Y-99621040D01*
G37*
G36*
X71915027Y-99797817D02*
G01*
X71738250Y-99621040D01*
X72657489Y-98701801D01*
X72834266Y-98878578D01*
X71915027Y-99797817D01*
G37*
G36*
X71561474Y-99444264D02*
G01*
X71384697Y-99267487D01*
X72303936Y-98348248D01*
X72480713Y-98525025D01*
X71561474Y-99444264D01*
G37*
G36*
X71207920Y-99090710D02*
G01*
X71031143Y-98913933D01*
X71950382Y-97994694D01*
X72127159Y-98171471D01*
X71207920Y-99090710D01*
G37*
G36*
X70854367Y-98737157D02*
G01*
X70677590Y-98560380D01*
X71596829Y-97641141D01*
X71773606Y-97817918D01*
X70854367Y-98737157D01*
G37*
G36*
X70500814Y-98383604D02*
G01*
X70324037Y-98206827D01*
X71243276Y-97287588D01*
X71420053Y-97464365D01*
X70500814Y-98383604D01*
G37*
G36*
X70147260Y-98030050D02*
G01*
X69970483Y-97853273D01*
X70889722Y-96934034D01*
X71066499Y-97110811D01*
X70147260Y-98030050D01*
G37*
G36*
X69793707Y-97676497D02*
G01*
X69616930Y-97499720D01*
X70536169Y-96580481D01*
X70712946Y-96757258D01*
X69793707Y-97676497D01*
G37*
G36*
X69440153Y-97322943D02*
G01*
X69263376Y-97146166D01*
X70182615Y-96226927D01*
X70359392Y-96403704D01*
X69440153Y-97322943D01*
G37*
G36*
X69086600Y-96969390D02*
G01*
X68909823Y-96792613D01*
X69829062Y-95873374D01*
X70005839Y-96050151D01*
X69086600Y-96969390D01*
G37*
G36*
X68733047Y-96615837D02*
G01*
X68556270Y-96439060D01*
X69475509Y-95519821D01*
X69652286Y-95696598D01*
X68733047Y-96615837D01*
G37*
G36*
X68379493Y-96262283D02*
G01*
X68202716Y-96085506D01*
X69121955Y-95166267D01*
X69298732Y-95343044D01*
X68379493Y-96262283D01*
G37*
G36*
X68025940Y-95908730D02*
G01*
X67849163Y-95731953D01*
X68768402Y-94812714D01*
X68945179Y-94989491D01*
X68025940Y-95908730D01*
G37*
%TD*%
%TO.C,Y1*%
G36*
X68299949Y-98269157D02*
G01*
X67027157Y-99541949D01*
X66320051Y-98834843D01*
X67592843Y-97562051D01*
X68299949Y-98269157D01*
G37*
G36*
X66532183Y-96501391D02*
G01*
X65259391Y-97774183D01*
X64552285Y-97067077D01*
X65825077Y-95794285D01*
X66532183Y-96501391D01*
G37*
%TD*%
D11*
%TO.C,U1*%
X61806000Y-93284000D03*
X61806000Y-95184000D03*
X59606000Y-95184000D03*
X59606000Y-94234000D03*
X59606000Y-93284000D03*
%TD*%
%TO.C,R2*%
G36*
G01*
X59903000Y-98724500D02*
X59903000Y-98379500D01*
G75*
G02*
X60050500Y-98232000I147500J0D01*
G01*
X60345500Y-98232000D01*
G75*
G02*
X60493000Y-98379500I0J-147500D01*
G01*
X60493000Y-98724500D01*
G75*
G02*
X60345500Y-98872000I-147500J0D01*
G01*
X60050500Y-98872000D01*
G75*
G02*
X59903000Y-98724500I0J147500D01*
G01*
G37*
G36*
G01*
X58933000Y-98724500D02*
X58933000Y-98379500D01*
G75*
G02*
X59080500Y-98232000I147500J0D01*
G01*
X59375500Y-98232000D01*
G75*
G02*
X59523000Y-98379500I0J-147500D01*
G01*
X59523000Y-98724500D01*
G75*
G02*
X59375500Y-98872000I-147500J0D01*
G01*
X59080500Y-98872000D01*
G75*
G02*
X58933000Y-98724500I0J147500D01*
G01*
G37*
%TD*%
%TO.C,D1*%
G36*
G01*
X61509000Y-99649500D02*
X61509000Y-99994500D01*
G75*
G02*
X61361500Y-100142000I-147500J0D01*
G01*
X61066500Y-100142000D01*
G75*
G02*
X60919000Y-99994500I0J147500D01*
G01*
X60919000Y-99649500D01*
G75*
G02*
X61066500Y-99502000I147500J0D01*
G01*
X61361500Y-99502000D01*
G75*
G02*
X61509000Y-99649500I0J-147500D01*
G01*
G37*
G36*
G01*
X62479000Y-99649500D02*
X62479000Y-99994500D01*
G75*
G02*
X62331500Y-100142000I-147500J0D01*
G01*
X62036500Y-100142000D01*
G75*
G02*
X61889000Y-99994500I0J147500D01*
G01*
X61889000Y-99649500D01*
G75*
G02*
X62036500Y-99502000I147500J0D01*
G01*
X62331500Y-99502000D01*
G75*
G02*
X62479000Y-99649500I0J-147500D01*
G01*
G37*
%TD*%
%TO.C,R1*%
G36*
G01*
X59523000Y-99649500D02*
X59523000Y-99994500D01*
G75*
G02*
X59375500Y-100142000I-147500J0D01*
G01*
X59080500Y-100142000D01*
G75*
G02*
X58933000Y-99994500I0J147500D01*
G01*
X58933000Y-99649500D01*
G75*
G02*
X59080500Y-99502000I147500J0D01*
G01*
X59375500Y-99502000D01*
G75*
G02*
X59523000Y-99649500I0J-147500D01*
G01*
G37*
G36*
G01*
X60493000Y-99649500D02*
X60493000Y-99994500D01*
G75*
G02*
X60345500Y-100142000I-147500J0D01*
G01*
X60050500Y-100142000D01*
G75*
G02*
X59903000Y-99994500I0J147500D01*
G01*
X59903000Y-99649500D01*
G75*
G02*
X60050500Y-99502000I147500J0D01*
G01*
X60345500Y-99502000D01*
G75*
G02*
X60493000Y-99649500I0J-147500D01*
G01*
G37*
%TD*%
%TO.C,C2*%
G36*
G01*
X76164273Y-87782678D02*
X75920322Y-87538726D01*
G75*
G02*
X75920322Y-87330130I104298J104298D01*
G01*
X76128918Y-87121534D01*
G75*
G02*
X76337514Y-87121534I104298J-104298D01*
G01*
X76581466Y-87365486D01*
G75*
G02*
X76581466Y-87574082I-104298J-104298D01*
G01*
X76372870Y-87782678D01*
G75*
G02*
X76164274Y-87782678I-104298J104298D01*
G01*
G37*
G36*
G01*
X75478379Y-88468572D02*
X75234428Y-88224620D01*
G75*
G02*
X75234428Y-88016024I104298J104298D01*
G01*
X75443024Y-87807428D01*
G75*
G02*
X75651620Y-87807428I104298J-104298D01*
G01*
X75895572Y-88051380D01*
G75*
G02*
X75895572Y-88259976I-104298J-104298D01*
G01*
X75686976Y-88468572D01*
G75*
G02*
X75478380Y-88468572I-104298J104298D01*
G01*
G37*
%TD*%
%TO.C,R5*%
G36*
G01*
X81471000Y-90886500D02*
X81471000Y-91231500D01*
G75*
G02*
X81323500Y-91379000I-147500J0D01*
G01*
X81028500Y-91379000D01*
G75*
G02*
X80881000Y-91231500I0J147500D01*
G01*
X80881000Y-90886500D01*
G75*
G02*
X81028500Y-90739000I147500J0D01*
G01*
X81323500Y-90739000D01*
G75*
G02*
X81471000Y-90886500I0J-147500D01*
G01*
G37*
G36*
G01*
X82441000Y-90886500D02*
X82441000Y-91231500D01*
G75*
G02*
X82293500Y-91379000I-147500J0D01*
G01*
X81998500Y-91379000D01*
G75*
G02*
X81851000Y-91231500I0J147500D01*
G01*
X81851000Y-90886500D01*
G75*
G02*
X81998500Y-90739000I147500J0D01*
G01*
X82293500Y-90739000D01*
G75*
G02*
X82441000Y-90886500I0J-147500D01*
G01*
G37*
%TD*%
%TO.C,C7*%
G36*
G01*
X63418500Y-94552000D02*
X63073500Y-94552000D01*
G75*
G02*
X62926000Y-94404500I0J147500D01*
G01*
X62926000Y-94109500D01*
G75*
G02*
X63073500Y-93962000I147500J0D01*
G01*
X63418500Y-93962000D01*
G75*
G02*
X63566000Y-94109500I0J-147500D01*
G01*
X63566000Y-94404500D01*
G75*
G02*
X63418500Y-94552000I-147500J0D01*
G01*
G37*
G36*
G01*
X63418500Y-95522000D02*
X63073500Y-95522000D01*
G75*
G02*
X62926000Y-95374500I0J147500D01*
G01*
X62926000Y-95079500D01*
G75*
G02*
X63073500Y-94932000I147500J0D01*
G01*
X63418500Y-94932000D01*
G75*
G02*
X63566000Y-95079500I0J-147500D01*
G01*
X63566000Y-95374500D01*
G75*
G02*
X63418500Y-95522000I-147500J0D01*
G01*
G37*
%TD*%
%TO.C,C4*%
G36*
G01*
X70586322Y-101056273D02*
X70830274Y-100812322D01*
G75*
G02*
X71038870Y-100812322I104298J-104298D01*
G01*
X71247466Y-101020918D01*
G75*
G02*
X71247466Y-101229514I-104298J-104298D01*
G01*
X71003514Y-101473466D01*
G75*
G02*
X70794918Y-101473466I-104298J104298D01*
G01*
X70586322Y-101264870D01*
G75*
G02*
X70586322Y-101056274I104298J104298D01*
G01*
G37*
G36*
G01*
X69900428Y-100370379D02*
X70144380Y-100126428D01*
G75*
G02*
X70352976Y-100126428I104298J-104298D01*
G01*
X70561572Y-100335024D01*
G75*
G02*
X70561572Y-100543620I-104298J-104298D01*
G01*
X70317620Y-100787572D01*
G75*
G02*
X70109024Y-100787572I-104298J104298D01*
G01*
X69900428Y-100578976D01*
G75*
G02*
X69900428Y-100370380I104298J104298D01*
G01*
G37*
%TD*%
%TO.C,C9*%
G36*
G01*
X81448000Y-97236500D02*
X81448000Y-97581500D01*
G75*
G02*
X81300500Y-97729000I-147500J0D01*
G01*
X81005500Y-97729000D01*
G75*
G02*
X80858000Y-97581500I0J147500D01*
G01*
X80858000Y-97236500D01*
G75*
G02*
X81005500Y-97089000I147500J0D01*
G01*
X81300500Y-97089000D01*
G75*
G02*
X81448000Y-97236500I0J-147500D01*
G01*
G37*
G36*
G01*
X82418000Y-97236500D02*
X82418000Y-97581500D01*
G75*
G02*
X82270500Y-97729000I-147500J0D01*
G01*
X81975500Y-97729000D01*
G75*
G02*
X81828000Y-97581500I0J147500D01*
G01*
X81828000Y-97236500D01*
G75*
G02*
X81975500Y-97089000I147500J0D01*
G01*
X82270500Y-97089000D01*
G75*
G02*
X82418000Y-97236500I0J-147500D01*
G01*
G37*
%TD*%
%TO.C,R3*%
G36*
G01*
X57068500Y-94021000D02*
X56723500Y-94021000D01*
G75*
G02*
X56576000Y-93873500I0J147500D01*
G01*
X56576000Y-93578500D01*
G75*
G02*
X56723500Y-93431000I147500J0D01*
G01*
X57068500Y-93431000D01*
G75*
G02*
X57216000Y-93578500I0J-147500D01*
G01*
X57216000Y-93873500D01*
G75*
G02*
X57068500Y-94021000I-147500J0D01*
G01*
G37*
G36*
G01*
X57068500Y-93051000D02*
X56723500Y-93051000D01*
G75*
G02*
X56576000Y-92903500I0J147500D01*
G01*
X56576000Y-92608500D01*
G75*
G02*
X56723500Y-92461000I147500J0D01*
G01*
X57068500Y-92461000D01*
G75*
G02*
X57216000Y-92608500I0J-147500D01*
G01*
X57216000Y-92903500D01*
G75*
G02*
X57068500Y-93051000I-147500J0D01*
G01*
G37*
%TD*%
%TO.C,R4*%
G36*
G01*
X56723500Y-95417000D02*
X57068500Y-95417000D01*
G75*
G02*
X57216000Y-95564500I0J-147500D01*
G01*
X57216000Y-95859500D01*
G75*
G02*
X57068500Y-96007000I-147500J0D01*
G01*
X56723500Y-96007000D01*
G75*
G02*
X56576000Y-95859500I0J147500D01*
G01*
X56576000Y-95564500D01*
G75*
G02*
X56723500Y-95417000I147500J0D01*
G01*
G37*
G36*
G01*
X56723500Y-94447000D02*
X57068500Y-94447000D01*
G75*
G02*
X57216000Y-94594500I0J-147500D01*
G01*
X57216000Y-94889500D01*
G75*
G02*
X57068500Y-95037000I-147500J0D01*
G01*
X56723500Y-95037000D01*
G75*
G02*
X56576000Y-94889500I0J147500D01*
G01*
X56576000Y-94594500D01*
G75*
G02*
X56723500Y-94447000I147500J0D01*
G01*
G37*
%TD*%
%TO.C,C11*%
G36*
G01*
X65989572Y-99400621D02*
X65745620Y-99644572D01*
G75*
G02*
X65537024Y-99644572I-104298J104298D01*
G01*
X65328428Y-99435976D01*
G75*
G02*
X65328428Y-99227380I104298J104298D01*
G01*
X65572380Y-98983428D01*
G75*
G02*
X65780976Y-98983428I104298J-104298D01*
G01*
X65989572Y-99192024D01*
G75*
G02*
X65989572Y-99400620I-104298J-104298D01*
G01*
G37*
G36*
G01*
X66675466Y-100086515D02*
X66431514Y-100330466D01*
G75*
G02*
X66222918Y-100330466I-104298J104298D01*
G01*
X66014322Y-100121870D01*
G75*
G02*
X66014322Y-99913274I104298J104298D01*
G01*
X66258274Y-99669322D01*
G75*
G02*
X66466870Y-99669322I104298J-104298D01*
G01*
X66675466Y-99877918D01*
G75*
G02*
X66675466Y-100086514I-104298J-104298D01*
G01*
G37*
%TD*%
D12*
%TO.C,J1*%
X54845000Y-97484000D03*
X54845000Y-96684000D03*
X54845000Y-91784000D03*
X54845000Y-90984000D03*
X54845000Y-90984000D03*
X54845000Y-91784000D03*
X54845000Y-96684000D03*
X54845000Y-97484000D03*
D13*
X54845000Y-92484000D03*
X54845000Y-92984000D03*
X54845000Y-93484000D03*
X54845000Y-94484000D03*
X54845000Y-94984000D03*
X54845000Y-95484000D03*
X54845000Y-95984000D03*
X54845000Y-93984000D03*
%TD*%
%TO.C,C5*%
G36*
G01*
X68948625Y-89316727D02*
X68704673Y-89560678D01*
G75*
G02*
X68496077Y-89560678I-104298J104298D01*
G01*
X68287481Y-89352082D01*
G75*
G02*
X68287481Y-89143486I104298J104298D01*
G01*
X68531433Y-88899534D01*
G75*
G02*
X68740029Y-88899534I104298J-104298D01*
G01*
X68948625Y-89108130D01*
G75*
G02*
X68948625Y-89316726I-104298J-104298D01*
G01*
G37*
G36*
G01*
X69634519Y-90002621D02*
X69390567Y-90246572D01*
G75*
G02*
X69181971Y-90246572I-104298J104298D01*
G01*
X68973375Y-90037976D01*
G75*
G02*
X68973375Y-89829380I104298J104298D01*
G01*
X69217327Y-89585428D01*
G75*
G02*
X69425923Y-89585428I104298J-104298D01*
G01*
X69634519Y-89794024D01*
G75*
G02*
X69634519Y-90002620I-104298J-104298D01*
G01*
G37*
%TD*%
%TO.C,SW1*%
G36*
G01*
X80480000Y-91734000D02*
X82080000Y-91734000D01*
G75*
G02*
X82280000Y-91934000I0J-200000D01*
G01*
X82280000Y-92334000D01*
G75*
G02*
X82080000Y-92534000I-200000J0D01*
G01*
X80480000Y-92534000D01*
G75*
G02*
X80280000Y-92334000I0J200000D01*
G01*
X80280000Y-91934000D01*
G75*
G02*
X80480000Y-91734000I200000J0D01*
G01*
G37*
G36*
G01*
X80480000Y-95934000D02*
X82080000Y-95934000D01*
G75*
G02*
X82280000Y-96134000I0J-200000D01*
G01*
X82280000Y-96534000D01*
G75*
G02*
X82080000Y-96734000I-200000J0D01*
G01*
X80480000Y-96734000D01*
G75*
G02*
X80280000Y-96534000I0J200000D01*
G01*
X80280000Y-96134000D01*
G75*
G02*
X80480000Y-95934000I200000J0D01*
G01*
G37*
%TD*%
D14*
%TO.C,J2*%
X97652000Y-91129000D03*
D15*
X97652000Y-98779000D03*
D14*
X97652000Y-92229000D03*
X97652000Y-93329000D03*
X97652000Y-94429000D03*
X97652000Y-95529000D03*
X97652000Y-96629000D03*
X97652000Y-97729000D03*
D16*
X97302000Y-99989000D03*
D17*
X97527000Y-88669000D03*
D18*
X87802000Y-88494000D03*
X91502000Y-88494000D03*
D19*
X86827000Y-91994000D03*
X86827000Y-97964000D03*
%TD*%
%TO.C,D2*%
G36*
G01*
X61509000Y-98379500D02*
X61509000Y-98724500D01*
G75*
G02*
X61361500Y-98872000I-147500J0D01*
G01*
X61066500Y-98872000D01*
G75*
G02*
X60919000Y-98724500I0J147500D01*
G01*
X60919000Y-98379500D01*
G75*
G02*
X61066500Y-98232000I147500J0D01*
G01*
X61361500Y-98232000D01*
G75*
G02*
X61509000Y-98379500I0J-147500D01*
G01*
G37*
G36*
G01*
X62479000Y-98379500D02*
X62479000Y-98724500D01*
G75*
G02*
X62331500Y-98872000I-147500J0D01*
G01*
X62036500Y-98872000D01*
G75*
G02*
X61889000Y-98724500I0J147500D01*
G01*
X61889000Y-98379500D01*
G75*
G02*
X62036500Y-98232000I147500J0D01*
G01*
X62331500Y-98232000D01*
G75*
G02*
X62479000Y-98379500I0J-147500D01*
G01*
G37*
%TD*%
%TO.C,L1*%
G36*
G01*
X69065903Y-100108332D02*
X68420668Y-99463097D01*
G75*
G02*
X68420668Y-99118383I172357J172357D01*
G01*
X68765383Y-98773668D01*
G75*
G02*
X69110097Y-98773668I172357J-172357D01*
G01*
X69755332Y-99418903D01*
G75*
G02*
X69755332Y-99763617I-172357J-172357D01*
G01*
X69410617Y-100108332D01*
G75*
G02*
X69065903Y-100108332I-172357J172357D01*
G01*
G37*
G36*
G01*
X67740077Y-101434158D02*
X67094842Y-100788923D01*
G75*
G02*
X67094842Y-100444209I172357J172357D01*
G01*
X67439557Y-100099494D01*
G75*
G02*
X67784271Y-100099494I172357J-172357D01*
G01*
X68429506Y-100744729D01*
G75*
G02*
X68429506Y-101089443I-172357J-172357D01*
G01*
X68084791Y-101434158D01*
G75*
G02*
X67740077Y-101434158I-172357J172357D01*
G01*
G37*
%TD*%
M02*
