%TF.GenerationSoftware,KiCad,Pcbnew,(5.1.6)-1*%
%TF.CreationDate,2022-07-03T21:07:17+08:00*%
%TF.ProjectId,cloneduino_zero,636c6f6e-6564-4756-996e-6f5f7a65726f,1.0*%
%TF.SameCoordinates,Original*%
%TF.FileFunction,Copper,L2,Inr*%
%TF.FilePolarity,Positive*%
%FSLAX46Y46*%
G04 Gerber Fmt 4.6, Leading zero omitted, Abs format (unit mm)*
G04 Created by KiCad (PCBNEW (5.1.6)-1) date 2022-07-03 21:07:17*
%MOMM*%
%LPD*%
G01*
G04 APERTURE LIST*
%TA.AperFunction,ViaPad*%
%ADD10O,1.700000X1.700000*%
%TD*%
%TA.AperFunction,ViaPad*%
%ADD11C,1.700000*%
%TD*%
%TA.AperFunction,ViaPad*%
%ADD12O,2.100000X1.000000*%
%TD*%
%TA.AperFunction,ViaPad*%
%ADD13O,1.600000X1.000000*%
%TD*%
%TA.AperFunction,ViaPad*%
%ADD14C,0.450000*%
%TD*%
%TA.AperFunction,Conductor*%
%ADD15C,0.127000*%
%TD*%
%TA.AperFunction,Conductor*%
%ADD16C,0.254000*%
%TD*%
G04 APERTURE END LIST*
D10*
%TO.N,+5V*%
%TO.C,J4*%
X49276000Y-85344000D03*
%TO.N,+3V3*%
X51816000Y-85344000D03*
%TO.N,GND*%
X54356000Y-85344000D03*
%TO.N,/PB03*%
X56896000Y-85344000D03*
%TO.N,/PB02*%
X59436000Y-85344000D03*
%TO.N,/PA28*%
X61976000Y-85344000D03*
%TO.N,/NRST*%
X64516000Y-85344000D03*
%TO.N,/PA27*%
X67056000Y-85344000D03*
%TO.N,/PB23*%
X69596000Y-85344000D03*
%TO.N,/PB22*%
X72136000Y-85344000D03*
%TO.N,/USB_D+*%
X74676000Y-85344000D03*
%TO.N,/USB_D-*%
X77216000Y-85344000D03*
%TO.N,/PA23*%
X79756000Y-85344000D03*
%TO.N,/PA22*%
X82296000Y-85344000D03*
%TO.N,/PA21*%
X84836000Y-85344000D03*
%TO.N,/PA20*%
X87376000Y-85344000D03*
%TO.N,/PA19*%
X89916000Y-85344000D03*
%TO.N,/PA18*%
X92456000Y-85344000D03*
%TO.N,/PA17*%
X94996000Y-85344000D03*
D11*
%TO.N,/PA16*%
X97536000Y-85344000D03*
%TD*%
D12*
%TO.N,GND*%
%TO.C,J1*%
X53930000Y-98554000D03*
X53930000Y-89914000D03*
D13*
X49750000Y-89914000D03*
X49750000Y-98554000D03*
%TD*%
D10*
%TO.N,GND*%
%TO.C,J5*%
X84836000Y-97790000D03*
%TO.N,/PA31*%
X84836000Y-95250000D03*
%TO.N,/PA30*%
X84836000Y-92710000D03*
D11*
%TO.N,+3V3*%
X84836000Y-90170000D03*
%TD*%
D10*
%TO.N,/PA15*%
%TO.C,J3*%
X97536000Y-103124000D03*
%TO.N,/PA14*%
X94996000Y-103124000D03*
%TO.N,/PA12*%
X92456000Y-103124000D03*
%TO.N,/PB11*%
X89916000Y-103124000D03*
%TO.N,/PB10*%
X87376000Y-103124000D03*
%TO.N,/PA11*%
X84836000Y-103124000D03*
%TO.N,/PA10*%
X82296000Y-103124000D03*
%TO.N,/PA09*%
X79756000Y-103124000D03*
%TO.N,/PA08*%
X77216000Y-103124000D03*
%TO.N,/PA07*%
X74676000Y-103124000D03*
%TO.N,/PA06*%
X72136000Y-103124000D03*
%TO.N,/PA05*%
X69596000Y-103124000D03*
%TO.N,/PA04*%
X67056000Y-103124000D03*
%TO.N,/PB09*%
X64516000Y-103124000D03*
%TO.N,/PB08*%
X61976000Y-103124000D03*
%TO.N,/PA03*%
X59436000Y-103124000D03*
%TO.N,/PA02*%
X56896000Y-103124000D03*
%TO.N,GND*%
X54356000Y-103124000D03*
%TO.N,+3V3*%
X51816000Y-103124000D03*
D11*
%TO.N,+5V*%
X49276000Y-103124000D03*
%TD*%
D14*
%TO.N,GND*%
X73406000Y-89027000D03*
X96266000Y-96629000D03*
X57658000Y-93726000D03*
X69215000Y-100838000D03*
X62484000Y-97028000D03*
X78613000Y-94234000D03*
X73406000Y-99441000D03*
X78740000Y-100330000D03*
X65214500Y-98869500D03*
X68072000Y-88684053D03*
X57658000Y-94742000D03*
X90322000Y-88494000D03*
X67183000Y-89535000D03*
%TO.N,+5V*%
X56035990Y-96684000D03*
X55955496Y-91769496D03*
%TO.N,+3V3*%
X75184000Y-88519000D03*
X62738000Y-93284000D03*
X96266000Y-94429000D03*
X59228000Y-99141000D03*
X76644500Y-98488500D03*
X65659000Y-101346000D03*
X67183000Y-88646000D03*
%TO.N,/NRST*%
X69599022Y-88642978D03*
X81280000Y-94234000D03*
%TO.N,/USB_D-*%
X56134000Y-94742000D03*
X53582000Y-93484000D03*
X77343000Y-88805100D03*
%TO.N,/USB_D+*%
X76708000Y-88138000D03*
X56134000Y-93726000D03*
X53594000Y-94996000D03*
%TO.N,/PA02*%
X68072000Y-97409000D03*
%TO.N,/PA03*%
X68707000Y-97155000D03*
%TO.N,/PB08*%
X69215000Y-98171000D03*
%TO.N,/PB09*%
X69723000Y-98679000D03*
%TO.N,/PA04*%
X70231000Y-99187000D03*
%TO.N,/PA05*%
X70764491Y-99695000D03*
%TO.N,/PA07*%
X71882000Y-100457000D03*
%TO.N,/PA08*%
X75438000Y-100838000D03*
%TO.N,/PB10*%
X96266000Y-93345000D03*
%TO.N,/PB11*%
X96266000Y-95529000D03*
%TO.N,/PA12*%
X96266000Y-97729000D03*
%TO.N,/PB03*%
X66230500Y-91948000D03*
%TO.N,/PB02*%
X66802000Y-91440000D03*
%TO.N,/PA31*%
X66230500Y-90678000D03*
%TO.N,/PA30*%
X66548000Y-89916000D03*
%TO.N,/PB22*%
X71358183Y-88280817D03*
%TO.N,/PA23*%
X77133659Y-89452659D03*
%TO.N,/PA17*%
X62992000Y-99822000D03*
%TO.N,/PA13*%
X79160076Y-97496924D03*
X96266000Y-92202000D03*
%TD*%
D15*
%TO.N,GND*%
X68033947Y-88684053D02*
X67183000Y-89535000D01*
X68072000Y-88684053D02*
X68033947Y-88684053D01*
%TO.N,/USB_D+*%
X56134000Y-93726000D02*
X55626000Y-93726000D01*
X55626000Y-93726000D02*
X54356000Y-94996000D01*
X53594000Y-94996000D02*
X54356000Y-94996000D01*
%TD*%
D16*
%TO.N,GND*%
G36*
X54483000Y-85217000D02*
G01*
X54503000Y-85217000D01*
X54503000Y-85471000D01*
X54483000Y-85471000D01*
X54483000Y-86664155D01*
X54712890Y-86785476D01*
X54860099Y-86740825D01*
X55122920Y-86615641D01*
X55356269Y-86441588D01*
X55551178Y-86225355D01*
X55620805Y-86108466D01*
X55742525Y-86290632D01*
X55949368Y-86497475D01*
X56192589Y-86659990D01*
X56462842Y-86771932D01*
X56749740Y-86829000D01*
X57042260Y-86829000D01*
X57329158Y-86771932D01*
X57599411Y-86659990D01*
X57842632Y-86497475D01*
X58049475Y-86290632D01*
X58166000Y-86116240D01*
X58282525Y-86290632D01*
X58489368Y-86497475D01*
X58732589Y-86659990D01*
X59002842Y-86771932D01*
X59289740Y-86829000D01*
X59582260Y-86829000D01*
X59869158Y-86771932D01*
X60139411Y-86659990D01*
X60382632Y-86497475D01*
X60589475Y-86290632D01*
X60706000Y-86116240D01*
X60822525Y-86290632D01*
X61029368Y-86497475D01*
X61272589Y-86659990D01*
X61542842Y-86771932D01*
X61829740Y-86829000D01*
X62122260Y-86829000D01*
X62409158Y-86771932D01*
X62679411Y-86659990D01*
X62922632Y-86497475D01*
X63129475Y-86290632D01*
X63246000Y-86116240D01*
X63362525Y-86290632D01*
X63569368Y-86497475D01*
X63812589Y-86659990D01*
X64082842Y-86771932D01*
X64369740Y-86829000D01*
X64662260Y-86829000D01*
X64949158Y-86771932D01*
X65219411Y-86659990D01*
X65462632Y-86497475D01*
X65669475Y-86290632D01*
X65786000Y-86116240D01*
X65902525Y-86290632D01*
X66109368Y-86497475D01*
X66352589Y-86659990D01*
X66622842Y-86771932D01*
X66909740Y-86829000D01*
X67202260Y-86829000D01*
X67489158Y-86771932D01*
X67759411Y-86659990D01*
X68002632Y-86497475D01*
X68209475Y-86290632D01*
X68326000Y-86116240D01*
X68442525Y-86290632D01*
X68649368Y-86497475D01*
X68892589Y-86659990D01*
X69162842Y-86771932D01*
X69449740Y-86829000D01*
X69742260Y-86829000D01*
X70029158Y-86771932D01*
X70299411Y-86659990D01*
X70542632Y-86497475D01*
X70749475Y-86290632D01*
X70866000Y-86116240D01*
X70982525Y-86290632D01*
X71189368Y-86497475D01*
X71432589Y-86659990D01*
X71702842Y-86771932D01*
X71989740Y-86829000D01*
X72282260Y-86829000D01*
X72569158Y-86771932D01*
X72839411Y-86659990D01*
X73082632Y-86497475D01*
X73289475Y-86290632D01*
X73406000Y-86116240D01*
X73522525Y-86290632D01*
X73729368Y-86497475D01*
X73972589Y-86659990D01*
X74242842Y-86771932D01*
X74529740Y-86829000D01*
X74822260Y-86829000D01*
X75109158Y-86771932D01*
X75379411Y-86659990D01*
X75622632Y-86497475D01*
X75829475Y-86290632D01*
X75946000Y-86116240D01*
X76062525Y-86290632D01*
X76269368Y-86497475D01*
X76512589Y-86659990D01*
X76782842Y-86771932D01*
X77069740Y-86829000D01*
X77362260Y-86829000D01*
X77649158Y-86771932D01*
X77919411Y-86659990D01*
X78162632Y-86497475D01*
X78369475Y-86290632D01*
X78486000Y-86116240D01*
X78602525Y-86290632D01*
X78809368Y-86497475D01*
X79052589Y-86659990D01*
X79322842Y-86771932D01*
X79609740Y-86829000D01*
X79902260Y-86829000D01*
X80189158Y-86771932D01*
X80459411Y-86659990D01*
X80702632Y-86497475D01*
X80909475Y-86290632D01*
X81026000Y-86116240D01*
X81142525Y-86290632D01*
X81349368Y-86497475D01*
X81592589Y-86659990D01*
X81862842Y-86771932D01*
X82149740Y-86829000D01*
X82442260Y-86829000D01*
X82729158Y-86771932D01*
X82999411Y-86659990D01*
X83242632Y-86497475D01*
X83449475Y-86290632D01*
X83566000Y-86116240D01*
X83682525Y-86290632D01*
X83889368Y-86497475D01*
X84132589Y-86659990D01*
X84402842Y-86771932D01*
X84689740Y-86829000D01*
X84982260Y-86829000D01*
X85269158Y-86771932D01*
X85539411Y-86659990D01*
X85782632Y-86497475D01*
X85989475Y-86290632D01*
X86106000Y-86116240D01*
X86222525Y-86290632D01*
X86429368Y-86497475D01*
X86672589Y-86659990D01*
X86942842Y-86771932D01*
X87229740Y-86829000D01*
X87522260Y-86829000D01*
X87809158Y-86771932D01*
X88079411Y-86659990D01*
X88322632Y-86497475D01*
X88529475Y-86290632D01*
X88646000Y-86116240D01*
X88762525Y-86290632D01*
X88969368Y-86497475D01*
X89212589Y-86659990D01*
X89482842Y-86771932D01*
X89769740Y-86829000D01*
X90062260Y-86829000D01*
X90349158Y-86771932D01*
X90619411Y-86659990D01*
X90862632Y-86497475D01*
X91069475Y-86290632D01*
X91186000Y-86116240D01*
X91302525Y-86290632D01*
X91509368Y-86497475D01*
X91752589Y-86659990D01*
X92022842Y-86771932D01*
X92309740Y-86829000D01*
X92602260Y-86829000D01*
X92889158Y-86771932D01*
X93159411Y-86659990D01*
X93402632Y-86497475D01*
X93609475Y-86290632D01*
X93726000Y-86116240D01*
X93842525Y-86290632D01*
X94049368Y-86497475D01*
X94292589Y-86659990D01*
X94562842Y-86771932D01*
X94849740Y-86829000D01*
X95142260Y-86829000D01*
X95429158Y-86771932D01*
X95699411Y-86659990D01*
X95942632Y-86497475D01*
X96149475Y-86290632D01*
X96266000Y-86116240D01*
X96382525Y-86290632D01*
X96589368Y-86497475D01*
X96832589Y-86659990D01*
X97102842Y-86771932D01*
X97389740Y-86829000D01*
X97682260Y-86829000D01*
X97740000Y-86817515D01*
X97740001Y-101650485D01*
X97682260Y-101639000D01*
X97389740Y-101639000D01*
X97102842Y-101696068D01*
X96832589Y-101808010D01*
X96589368Y-101970525D01*
X96382525Y-102177368D01*
X96266000Y-102351760D01*
X96149475Y-102177368D01*
X95942632Y-101970525D01*
X95699411Y-101808010D01*
X95429158Y-101696068D01*
X95142260Y-101639000D01*
X94849740Y-101639000D01*
X94562842Y-101696068D01*
X94292589Y-101808010D01*
X94049368Y-101970525D01*
X93842525Y-102177368D01*
X93726000Y-102351760D01*
X93609475Y-102177368D01*
X93402632Y-101970525D01*
X93159411Y-101808010D01*
X92889158Y-101696068D01*
X92602260Y-101639000D01*
X92309740Y-101639000D01*
X92022842Y-101696068D01*
X91752589Y-101808010D01*
X91509368Y-101970525D01*
X91302525Y-102177368D01*
X91186000Y-102351760D01*
X91069475Y-102177368D01*
X90862632Y-101970525D01*
X90619411Y-101808010D01*
X90349158Y-101696068D01*
X90062260Y-101639000D01*
X89769740Y-101639000D01*
X89482842Y-101696068D01*
X89212589Y-101808010D01*
X88969368Y-101970525D01*
X88762525Y-102177368D01*
X88646000Y-102351760D01*
X88529475Y-102177368D01*
X88322632Y-101970525D01*
X88079411Y-101808010D01*
X87809158Y-101696068D01*
X87522260Y-101639000D01*
X87229740Y-101639000D01*
X86942842Y-101696068D01*
X86672589Y-101808010D01*
X86429368Y-101970525D01*
X86222525Y-102177368D01*
X86106000Y-102351760D01*
X85989475Y-102177368D01*
X85782632Y-101970525D01*
X85539411Y-101808010D01*
X85269158Y-101696068D01*
X84982260Y-101639000D01*
X84689740Y-101639000D01*
X84402842Y-101696068D01*
X84132589Y-101808010D01*
X83889368Y-101970525D01*
X83682525Y-102177368D01*
X83566000Y-102351760D01*
X83449475Y-102177368D01*
X83242632Y-101970525D01*
X82999411Y-101808010D01*
X82729158Y-101696068D01*
X82442260Y-101639000D01*
X82149740Y-101639000D01*
X81862842Y-101696068D01*
X81592589Y-101808010D01*
X81349368Y-101970525D01*
X81142525Y-102177368D01*
X81026000Y-102351760D01*
X80909475Y-102177368D01*
X80702632Y-101970525D01*
X80459411Y-101808010D01*
X80189158Y-101696068D01*
X79902260Y-101639000D01*
X79609740Y-101639000D01*
X79322842Y-101696068D01*
X79052589Y-101808010D01*
X78809368Y-101970525D01*
X78602525Y-102177368D01*
X78486000Y-102351760D01*
X78369475Y-102177368D01*
X78162632Y-101970525D01*
X77919411Y-101808010D01*
X77649158Y-101696068D01*
X77362260Y-101639000D01*
X77069740Y-101639000D01*
X76782842Y-101696068D01*
X76512589Y-101808010D01*
X76269368Y-101970525D01*
X76062525Y-102177368D01*
X75946000Y-102351760D01*
X75829475Y-102177368D01*
X75622632Y-101970525D01*
X75379411Y-101808010D01*
X75109158Y-101696068D01*
X74822260Y-101639000D01*
X74529740Y-101639000D01*
X74242842Y-101696068D01*
X73972589Y-101808010D01*
X73729368Y-101970525D01*
X73522525Y-102177368D01*
X73406000Y-102351760D01*
X73289475Y-102177368D01*
X73082632Y-101970525D01*
X72839411Y-101808010D01*
X72569158Y-101696068D01*
X72282260Y-101639000D01*
X71989740Y-101639000D01*
X71702842Y-101696068D01*
X71432589Y-101808010D01*
X71189368Y-101970525D01*
X70982525Y-102177368D01*
X70866000Y-102351760D01*
X70749475Y-102177368D01*
X70542632Y-101970525D01*
X70299411Y-101808010D01*
X70029158Y-101696068D01*
X69742260Y-101639000D01*
X69449740Y-101639000D01*
X69162842Y-101696068D01*
X68892589Y-101808010D01*
X68649368Y-101970525D01*
X68442525Y-102177368D01*
X68326000Y-102351760D01*
X68209475Y-102177368D01*
X68002632Y-101970525D01*
X67759411Y-101808010D01*
X67489158Y-101696068D01*
X67202260Y-101639000D01*
X66909740Y-101639000D01*
X66622842Y-101696068D01*
X66396861Y-101789672D01*
X66421122Y-101753363D01*
X66485951Y-101596853D01*
X66519000Y-101430703D01*
X66519000Y-101261297D01*
X66485951Y-101095147D01*
X66421122Y-100938637D01*
X66327005Y-100797782D01*
X66207218Y-100677995D01*
X66066363Y-100583878D01*
X65909853Y-100519049D01*
X65743703Y-100486000D01*
X65574297Y-100486000D01*
X65408147Y-100519049D01*
X65251637Y-100583878D01*
X65110782Y-100677995D01*
X64990995Y-100797782D01*
X64896878Y-100938637D01*
X64832049Y-101095147D01*
X64799000Y-101261297D01*
X64799000Y-101430703D01*
X64832049Y-101596853D01*
X64866320Y-101679590D01*
X64662260Y-101639000D01*
X64369740Y-101639000D01*
X64082842Y-101696068D01*
X63812589Y-101808010D01*
X63569368Y-101970525D01*
X63362525Y-102177368D01*
X63246000Y-102351760D01*
X63129475Y-102177368D01*
X62922632Y-101970525D01*
X62679411Y-101808010D01*
X62409158Y-101696068D01*
X62122260Y-101639000D01*
X61829740Y-101639000D01*
X61542842Y-101696068D01*
X61272589Y-101808010D01*
X61029368Y-101970525D01*
X60822525Y-102177368D01*
X60706000Y-102351760D01*
X60589475Y-102177368D01*
X60382632Y-101970525D01*
X60139411Y-101808010D01*
X59869158Y-101696068D01*
X59582260Y-101639000D01*
X59289740Y-101639000D01*
X59002842Y-101696068D01*
X58732589Y-101808010D01*
X58489368Y-101970525D01*
X58282525Y-102177368D01*
X58166000Y-102351760D01*
X58049475Y-102177368D01*
X57842632Y-101970525D01*
X57599411Y-101808010D01*
X57329158Y-101696068D01*
X57042260Y-101639000D01*
X56749740Y-101639000D01*
X56462842Y-101696068D01*
X56192589Y-101808010D01*
X55949368Y-101970525D01*
X55742525Y-102177368D01*
X55620805Y-102359534D01*
X55551178Y-102242645D01*
X55356269Y-102026412D01*
X55122920Y-101852359D01*
X54860099Y-101727175D01*
X54712890Y-101682524D01*
X54483000Y-101803845D01*
X54483000Y-102997000D01*
X54503000Y-102997000D01*
X54503000Y-103251000D01*
X54483000Y-103251000D01*
X54483000Y-103271000D01*
X54229000Y-103271000D01*
X54229000Y-103251000D01*
X54209000Y-103251000D01*
X54209000Y-102997000D01*
X54229000Y-102997000D01*
X54229000Y-101803845D01*
X53999110Y-101682524D01*
X53851901Y-101727175D01*
X53589080Y-101852359D01*
X53355731Y-102026412D01*
X53160822Y-102242645D01*
X53091195Y-102359534D01*
X52969475Y-102177368D01*
X52762632Y-101970525D01*
X52519411Y-101808010D01*
X52249158Y-101696068D01*
X51962260Y-101639000D01*
X51669740Y-101639000D01*
X51382842Y-101696068D01*
X51112589Y-101808010D01*
X50869368Y-101970525D01*
X50662525Y-102177368D01*
X50546000Y-102351760D01*
X50429475Y-102177368D01*
X50222632Y-101970525D01*
X49979411Y-101808010D01*
X49709158Y-101696068D01*
X49422260Y-101639000D01*
X49129740Y-101639000D01*
X49060000Y-101652872D01*
X49060000Y-99623497D01*
X49104013Y-99642415D01*
X49323000Y-99689000D01*
X49623000Y-99689000D01*
X49623000Y-98681000D01*
X49877000Y-98681000D01*
X49877000Y-99689000D01*
X50177000Y-99689000D01*
X50395987Y-99642415D01*
X50601678Y-99554003D01*
X50786169Y-99427161D01*
X50942369Y-99266764D01*
X51064276Y-99078976D01*
X51144119Y-98855874D01*
X52285881Y-98855874D01*
X52365724Y-99078976D01*
X52487631Y-99266764D01*
X52643831Y-99427161D01*
X52828322Y-99554003D01*
X53034013Y-99642415D01*
X53253000Y-99689000D01*
X53803000Y-99689000D01*
X53803000Y-98681000D01*
X54057000Y-98681000D01*
X54057000Y-99689000D01*
X54607000Y-99689000D01*
X54825987Y-99642415D01*
X55031678Y-99554003D01*
X55216169Y-99427161D01*
X55372369Y-99266764D01*
X55494276Y-99078976D01*
X55502392Y-99056297D01*
X58368000Y-99056297D01*
X58368000Y-99225703D01*
X58401049Y-99391853D01*
X58465878Y-99548363D01*
X58559995Y-99689218D01*
X58679782Y-99809005D01*
X58820637Y-99903122D01*
X58977147Y-99967951D01*
X59143297Y-100001000D01*
X59312703Y-100001000D01*
X59478853Y-99967951D01*
X59635363Y-99903122D01*
X59776218Y-99809005D01*
X59847926Y-99737297D01*
X62132000Y-99737297D01*
X62132000Y-99906703D01*
X62165049Y-100072853D01*
X62229878Y-100229363D01*
X62323995Y-100370218D01*
X62443782Y-100490005D01*
X62584637Y-100584122D01*
X62741147Y-100648951D01*
X62907297Y-100682000D01*
X63076703Y-100682000D01*
X63242853Y-100648951D01*
X63399363Y-100584122D01*
X63540218Y-100490005D01*
X63660005Y-100370218D01*
X63754122Y-100229363D01*
X63818951Y-100072853D01*
X63852000Y-99906703D01*
X63852000Y-99737297D01*
X63818951Y-99571147D01*
X63754122Y-99414637D01*
X63660005Y-99273782D01*
X63540218Y-99153995D01*
X63399363Y-99059878D01*
X63242853Y-98995049D01*
X63076703Y-98962000D01*
X62907297Y-98962000D01*
X62741147Y-98995049D01*
X62584637Y-99059878D01*
X62443782Y-99153995D01*
X62323995Y-99273782D01*
X62229878Y-99414637D01*
X62165049Y-99571147D01*
X62132000Y-99737297D01*
X59847926Y-99737297D01*
X59896005Y-99689218D01*
X59990122Y-99548363D01*
X60054951Y-99391853D01*
X60088000Y-99225703D01*
X60088000Y-99056297D01*
X60054951Y-98890147D01*
X59990122Y-98733637D01*
X59896005Y-98592782D01*
X59776218Y-98472995D01*
X59635363Y-98378878D01*
X59478853Y-98314049D01*
X59312703Y-98281000D01*
X59143297Y-98281000D01*
X58977147Y-98314049D01*
X58820637Y-98378878D01*
X58679782Y-98472995D01*
X58559995Y-98592782D01*
X58465878Y-98733637D01*
X58401049Y-98890147D01*
X58368000Y-99056297D01*
X55502392Y-99056297D01*
X55574119Y-98855874D01*
X55447954Y-98681000D01*
X54057000Y-98681000D01*
X53803000Y-98681000D01*
X52412046Y-98681000D01*
X52285881Y-98855874D01*
X51144119Y-98855874D01*
X51017954Y-98681000D01*
X49877000Y-98681000D01*
X49623000Y-98681000D01*
X49603000Y-98681000D01*
X49603000Y-98427000D01*
X49623000Y-98427000D01*
X49623000Y-97419000D01*
X49877000Y-97419000D01*
X49877000Y-98427000D01*
X51017954Y-98427000D01*
X51144119Y-98252126D01*
X52285881Y-98252126D01*
X52412046Y-98427000D01*
X53803000Y-98427000D01*
X53803000Y-98407000D01*
X54057000Y-98407000D01*
X54057000Y-98427000D01*
X55447954Y-98427000D01*
X55574119Y-98252126D01*
X55494276Y-98029024D01*
X55372369Y-97841236D01*
X55322474Y-97790000D01*
X65151000Y-97790000D01*
X65153440Y-97814776D01*
X65160667Y-97838601D01*
X65172403Y-97860557D01*
X65188197Y-97879803D01*
X66204197Y-98895803D01*
X66223443Y-98911597D01*
X66245399Y-98923333D01*
X66269224Y-98930560D01*
X66294000Y-98933000D01*
X66318776Y-98930560D01*
X66342601Y-98923333D01*
X66364557Y-98911597D01*
X66383803Y-98895803D01*
X67371308Y-97908298D01*
X67403995Y-97957218D01*
X67523782Y-98077005D01*
X67664637Y-98171122D01*
X67821147Y-98235951D01*
X67987297Y-98269000D01*
X68156703Y-98269000D01*
X68322853Y-98235951D01*
X68355000Y-98222635D01*
X68355000Y-98255703D01*
X68388049Y-98421853D01*
X68452878Y-98578363D01*
X68546995Y-98719218D01*
X68666782Y-98839005D01*
X68807637Y-98933122D01*
X68915995Y-98978005D01*
X68960878Y-99086363D01*
X69054995Y-99227218D01*
X69174782Y-99347005D01*
X69315637Y-99441122D01*
X69423995Y-99486005D01*
X69468878Y-99594363D01*
X69562995Y-99735218D01*
X69682782Y-99855005D01*
X69823637Y-99949122D01*
X69962765Y-100006751D01*
X70002369Y-100102363D01*
X70096486Y-100243218D01*
X70216273Y-100363005D01*
X70357128Y-100457122D01*
X70513638Y-100521951D01*
X70679788Y-100555000D01*
X70849194Y-100555000D01*
X71015344Y-100521951D01*
X71022000Y-100519194D01*
X71022000Y-100541703D01*
X71055049Y-100707853D01*
X71119878Y-100864363D01*
X71213995Y-101005218D01*
X71333782Y-101125005D01*
X71474637Y-101219122D01*
X71631147Y-101283951D01*
X71797297Y-101317000D01*
X71966703Y-101317000D01*
X72132853Y-101283951D01*
X72289363Y-101219122D01*
X72430218Y-101125005D01*
X72550005Y-101005218D01*
X72644122Y-100864363D01*
X72690127Y-100753297D01*
X74578000Y-100753297D01*
X74578000Y-100922703D01*
X74611049Y-101088853D01*
X74675878Y-101245363D01*
X74769995Y-101386218D01*
X74889782Y-101506005D01*
X75030637Y-101600122D01*
X75187147Y-101664951D01*
X75353297Y-101698000D01*
X75522703Y-101698000D01*
X75688853Y-101664951D01*
X75845363Y-101600122D01*
X75986218Y-101506005D01*
X76106005Y-101386218D01*
X76200122Y-101245363D01*
X76264951Y-101088853D01*
X76298000Y-100922703D01*
X76298000Y-100753297D01*
X76264951Y-100587147D01*
X76200122Y-100430637D01*
X76106005Y-100289782D01*
X75986218Y-100169995D01*
X75845363Y-100075878D01*
X75688853Y-100011049D01*
X75522703Y-99978000D01*
X75353297Y-99978000D01*
X75187147Y-100011049D01*
X75030637Y-100075878D01*
X74889782Y-100169995D01*
X74769995Y-100289782D01*
X74675878Y-100430637D01*
X74611049Y-100587147D01*
X74578000Y-100753297D01*
X72690127Y-100753297D01*
X72708951Y-100707853D01*
X72742000Y-100541703D01*
X72742000Y-100372297D01*
X72708951Y-100206147D01*
X72644122Y-100049637D01*
X72550005Y-99908782D01*
X72430218Y-99788995D01*
X72289363Y-99694878D01*
X72132853Y-99630049D01*
X71966703Y-99597000D01*
X71797297Y-99597000D01*
X71631147Y-99630049D01*
X71624491Y-99632806D01*
X71624491Y-99610297D01*
X71591442Y-99444147D01*
X71526613Y-99287637D01*
X71432496Y-99146782D01*
X71312709Y-99026995D01*
X71171854Y-98932878D01*
X71032726Y-98875249D01*
X70993122Y-98779637D01*
X70899005Y-98638782D01*
X70779218Y-98518995D01*
X70638363Y-98424878D01*
X70587469Y-98403797D01*
X75784500Y-98403797D01*
X75784500Y-98573203D01*
X75817549Y-98739353D01*
X75882378Y-98895863D01*
X75976495Y-99036718D01*
X76096282Y-99156505D01*
X76237137Y-99250622D01*
X76393647Y-99315451D01*
X76559797Y-99348500D01*
X76729203Y-99348500D01*
X76895353Y-99315451D01*
X77051863Y-99250622D01*
X77192718Y-99156505D01*
X77312505Y-99036718D01*
X77406622Y-98895863D01*
X77471451Y-98739353D01*
X77504500Y-98573203D01*
X77504500Y-98403797D01*
X77471451Y-98237647D01*
X77406622Y-98081137D01*
X77312505Y-97940282D01*
X77192718Y-97820495D01*
X77051863Y-97726378D01*
X76895353Y-97661549D01*
X76729203Y-97628500D01*
X76559797Y-97628500D01*
X76393647Y-97661549D01*
X76237137Y-97726378D01*
X76096282Y-97820495D01*
X75976495Y-97940282D01*
X75882378Y-98081137D01*
X75817549Y-98237647D01*
X75784500Y-98403797D01*
X70587469Y-98403797D01*
X70530005Y-98379995D01*
X70485122Y-98271637D01*
X70391005Y-98130782D01*
X70271218Y-98010995D01*
X70130363Y-97916878D01*
X70022005Y-97871995D01*
X69977122Y-97763637D01*
X69883005Y-97622782D01*
X69763218Y-97502995D01*
X69627367Y-97412221D01*
X78300076Y-97412221D01*
X78300076Y-97581627D01*
X78333125Y-97747777D01*
X78397954Y-97904287D01*
X78492071Y-98045142D01*
X78611858Y-98164929D01*
X78752713Y-98259046D01*
X78909223Y-98323875D01*
X79075373Y-98356924D01*
X79244779Y-98356924D01*
X79410929Y-98323875D01*
X79567439Y-98259046D01*
X79708294Y-98164929D01*
X79726333Y-98146890D01*
X83394524Y-98146890D01*
X83439175Y-98294099D01*
X83564359Y-98556920D01*
X83738412Y-98790269D01*
X83954645Y-98985178D01*
X84204748Y-99134157D01*
X84479109Y-99231481D01*
X84709000Y-99110814D01*
X84709000Y-97917000D01*
X84963000Y-97917000D01*
X84963000Y-99110814D01*
X85192891Y-99231481D01*
X85467252Y-99134157D01*
X85717355Y-98985178D01*
X85933588Y-98790269D01*
X86107641Y-98556920D01*
X86232825Y-98294099D01*
X86277476Y-98146890D01*
X86156155Y-97917000D01*
X84963000Y-97917000D01*
X84709000Y-97917000D01*
X83515845Y-97917000D01*
X83394524Y-98146890D01*
X79726333Y-98146890D01*
X79828081Y-98045142D01*
X79922198Y-97904287D01*
X79987027Y-97747777D01*
X80020076Y-97581627D01*
X80020076Y-97412221D01*
X79987027Y-97246071D01*
X79922198Y-97089561D01*
X79828081Y-96948706D01*
X79708294Y-96828919D01*
X79567439Y-96734802D01*
X79410929Y-96669973D01*
X79244779Y-96636924D01*
X79075373Y-96636924D01*
X78909223Y-96669973D01*
X78752713Y-96734802D01*
X78611858Y-96828919D01*
X78492071Y-96948706D01*
X78397954Y-97089561D01*
X78333125Y-97246071D01*
X78300076Y-97412221D01*
X69627367Y-97412221D01*
X69622363Y-97408878D01*
X69540125Y-97374814D01*
X69567000Y-97239703D01*
X69567000Y-97070297D01*
X69533951Y-96904147D01*
X69469122Y-96747637D01*
X69375005Y-96606782D01*
X69255218Y-96486995D01*
X69114363Y-96392878D01*
X68957853Y-96328049D01*
X68791703Y-96295000D01*
X68622297Y-96295000D01*
X68456147Y-96328049D01*
X68299637Y-96392878D01*
X68158782Y-96486995D01*
X68096777Y-96549000D01*
X67987297Y-96549000D01*
X67821147Y-96582049D01*
X67664637Y-96646878D01*
X67523782Y-96740995D01*
X67403995Y-96860782D01*
X67309878Y-97001637D01*
X67280403Y-97072797D01*
X66637803Y-96430197D01*
X66618557Y-96414403D01*
X66596601Y-96402667D01*
X66572776Y-96395440D01*
X66548000Y-96393000D01*
X66523224Y-96395440D01*
X66499399Y-96402667D01*
X66477443Y-96414403D01*
X66458197Y-96430197D01*
X65188197Y-97700197D01*
X65172403Y-97719443D01*
X65160667Y-97741399D01*
X65153440Y-97765224D01*
X65151000Y-97790000D01*
X55322474Y-97790000D01*
X55216169Y-97680839D01*
X55031678Y-97553997D01*
X54825987Y-97465585D01*
X54607000Y-97419000D01*
X54316904Y-97419000D01*
X54323108Y-97404022D01*
X54360000Y-97218552D01*
X54360000Y-97029448D01*
X54323108Y-96843978D01*
X54250741Y-96669269D01*
X54203988Y-96599297D01*
X55175990Y-96599297D01*
X55175990Y-96768703D01*
X55209039Y-96934853D01*
X55273868Y-97091363D01*
X55367985Y-97232218D01*
X55487772Y-97352005D01*
X55628627Y-97446122D01*
X55785137Y-97510951D01*
X55951287Y-97544000D01*
X56120693Y-97544000D01*
X56286843Y-97510951D01*
X56443353Y-97446122D01*
X56584208Y-97352005D01*
X56703995Y-97232218D01*
X56798112Y-97091363D01*
X56862941Y-96934853D01*
X56895990Y-96768703D01*
X56895990Y-96599297D01*
X56862941Y-96433147D01*
X56798112Y-96276637D01*
X56703995Y-96135782D01*
X56584208Y-96015995D01*
X56443353Y-95921878D01*
X56286843Y-95857049D01*
X56120693Y-95824000D01*
X55951287Y-95824000D01*
X55785137Y-95857049D01*
X55628627Y-95921878D01*
X55487772Y-96015995D01*
X55367985Y-96135782D01*
X55273868Y-96276637D01*
X55209039Y-96433147D01*
X55175990Y-96599297D01*
X54203988Y-96599297D01*
X54145681Y-96512036D01*
X54011964Y-96378319D01*
X53854731Y-96273259D01*
X53680022Y-96200892D01*
X53494552Y-96164000D01*
X53305448Y-96164000D01*
X53119978Y-96200892D01*
X52945269Y-96273259D01*
X52788036Y-96378319D01*
X52654319Y-96512036D01*
X52549259Y-96669269D01*
X52476892Y-96843978D01*
X52440000Y-97029448D01*
X52440000Y-97218552D01*
X52476892Y-97404022D01*
X52549259Y-97578731D01*
X52628206Y-97696884D01*
X52487631Y-97841236D01*
X52365724Y-98029024D01*
X52285881Y-98252126D01*
X51144119Y-98252126D01*
X51064276Y-98029024D01*
X50942369Y-97841236D01*
X50786169Y-97680839D01*
X50601678Y-97553997D01*
X50395987Y-97465585D01*
X50177000Y-97419000D01*
X49877000Y-97419000D01*
X49623000Y-97419000D01*
X49323000Y-97419000D01*
X49104013Y-97465585D01*
X49060000Y-97484503D01*
X49060000Y-93399297D01*
X52722000Y-93399297D01*
X52722000Y-93568703D01*
X52755049Y-93734853D01*
X52819878Y-93891363D01*
X52913995Y-94032218D01*
X53033782Y-94152005D01*
X53171475Y-94244009D01*
X53045782Y-94327995D01*
X52925995Y-94447782D01*
X52831878Y-94588637D01*
X52767049Y-94745147D01*
X52734000Y-94911297D01*
X52734000Y-95080703D01*
X52767049Y-95246853D01*
X52831878Y-95403363D01*
X52925995Y-95544218D01*
X53045782Y-95664005D01*
X53186637Y-95758122D01*
X53343147Y-95822951D01*
X53509297Y-95856000D01*
X53678703Y-95856000D01*
X53844853Y-95822951D01*
X54001363Y-95758122D01*
X54096579Y-95694500D01*
X54321702Y-95694500D01*
X54356000Y-95697878D01*
X54390298Y-95694500D01*
X54390309Y-95694500D01*
X54492930Y-95684393D01*
X54624597Y-95644452D01*
X54745943Y-95579591D01*
X54852303Y-95492303D01*
X54874175Y-95465652D01*
X55318743Y-95021085D01*
X55371878Y-95149363D01*
X55465995Y-95290218D01*
X55585782Y-95410005D01*
X55726637Y-95504122D01*
X55883147Y-95568951D01*
X56049297Y-95602000D01*
X56218703Y-95602000D01*
X56384853Y-95568951D01*
X56541363Y-95504122D01*
X56682218Y-95410005D01*
X56802005Y-95290218D01*
X56896122Y-95149363D01*
X56960951Y-94992853D01*
X56994000Y-94826703D01*
X56994000Y-94657297D01*
X56960951Y-94491147D01*
X56896122Y-94334637D01*
X56828878Y-94234000D01*
X56885475Y-94149297D01*
X80420000Y-94149297D01*
X80420000Y-94318703D01*
X80453049Y-94484853D01*
X80517878Y-94641363D01*
X80611995Y-94782218D01*
X80731782Y-94902005D01*
X80872637Y-94996122D01*
X81029147Y-95060951D01*
X81195297Y-95094000D01*
X81364703Y-95094000D01*
X81530853Y-95060951D01*
X81687363Y-94996122D01*
X81828218Y-94902005D01*
X81948005Y-94782218D01*
X82042122Y-94641363D01*
X82106951Y-94484853D01*
X82140000Y-94318703D01*
X82140000Y-94149297D01*
X82106951Y-93983147D01*
X82042122Y-93826637D01*
X81948005Y-93685782D01*
X81828218Y-93565995D01*
X81687363Y-93471878D01*
X81530853Y-93407049D01*
X81364703Y-93374000D01*
X81195297Y-93374000D01*
X81029147Y-93407049D01*
X80872637Y-93471878D01*
X80731782Y-93565995D01*
X80611995Y-93685782D01*
X80517878Y-93826637D01*
X80453049Y-93983147D01*
X80420000Y-94149297D01*
X56885475Y-94149297D01*
X56896122Y-94133363D01*
X56960951Y-93976853D01*
X56994000Y-93810703D01*
X56994000Y-93641297D01*
X56960951Y-93475147D01*
X56896122Y-93318637D01*
X56816381Y-93199297D01*
X61878000Y-93199297D01*
X61878000Y-93368703D01*
X61911049Y-93534853D01*
X61975878Y-93691363D01*
X62069995Y-93832218D01*
X62189782Y-93952005D01*
X62330637Y-94046122D01*
X62487147Y-94110951D01*
X62653297Y-94144000D01*
X62822703Y-94144000D01*
X62988853Y-94110951D01*
X63145363Y-94046122D01*
X63286218Y-93952005D01*
X63406005Y-93832218D01*
X63500122Y-93691363D01*
X63564951Y-93534853D01*
X63598000Y-93368703D01*
X63598000Y-93199297D01*
X63564951Y-93033147D01*
X63500122Y-92876637D01*
X63406005Y-92735782D01*
X63286218Y-92615995D01*
X63145363Y-92521878D01*
X62988853Y-92457049D01*
X62822703Y-92424000D01*
X62653297Y-92424000D01*
X62487147Y-92457049D01*
X62330637Y-92521878D01*
X62189782Y-92615995D01*
X62069995Y-92735782D01*
X61975878Y-92876637D01*
X61911049Y-93033147D01*
X61878000Y-93199297D01*
X56816381Y-93199297D01*
X56802005Y-93177782D01*
X56682218Y-93057995D01*
X56541363Y-92963878D01*
X56384853Y-92899049D01*
X56218703Y-92866000D01*
X56049297Y-92866000D01*
X55883147Y-92899049D01*
X55726637Y-92963878D01*
X55635130Y-93025021D01*
X55625999Y-93024122D01*
X55591701Y-93027500D01*
X55591691Y-93027500D01*
X55489070Y-93037607D01*
X55357403Y-93077548D01*
X55357401Y-93077549D01*
X55236056Y-93142409D01*
X55156345Y-93207826D01*
X55156337Y-93207834D01*
X55129697Y-93229697D01*
X55107833Y-93256338D01*
X54078652Y-94285521D01*
X54004525Y-94235991D01*
X54130218Y-94152005D01*
X54250005Y-94032218D01*
X54344122Y-93891363D01*
X54408951Y-93734853D01*
X54442000Y-93568703D01*
X54442000Y-93399297D01*
X54408951Y-93233147D01*
X54344122Y-93076637D01*
X54250005Y-92935782D01*
X54130218Y-92815995D01*
X53989363Y-92721878D01*
X53832853Y-92657049D01*
X53666703Y-92624000D01*
X53497297Y-92624000D01*
X53331147Y-92657049D01*
X53174637Y-92721878D01*
X53033782Y-92815995D01*
X52913995Y-92935782D01*
X52819878Y-93076637D01*
X52755049Y-93233147D01*
X52722000Y-93399297D01*
X49060000Y-93399297D01*
X49060000Y-90983497D01*
X49104013Y-91002415D01*
X49323000Y-91049000D01*
X49623000Y-91049000D01*
X49623000Y-90041000D01*
X49877000Y-90041000D01*
X49877000Y-91049000D01*
X50177000Y-91049000D01*
X50395987Y-91002415D01*
X50601678Y-90914003D01*
X50786169Y-90787161D01*
X50942369Y-90626764D01*
X51064276Y-90438976D01*
X51144119Y-90215874D01*
X52285881Y-90215874D01*
X52365724Y-90438976D01*
X52487631Y-90626764D01*
X52628206Y-90771116D01*
X52549259Y-90889269D01*
X52476892Y-91063978D01*
X52440000Y-91249448D01*
X52440000Y-91438552D01*
X52476892Y-91624022D01*
X52549259Y-91798731D01*
X52654319Y-91955964D01*
X52788036Y-92089681D01*
X52945269Y-92194741D01*
X53119978Y-92267108D01*
X53305448Y-92304000D01*
X53494552Y-92304000D01*
X53680022Y-92267108D01*
X53854731Y-92194741D01*
X54011964Y-92089681D01*
X54145681Y-91955964D01*
X54250741Y-91798731D01*
X54297935Y-91684793D01*
X55095496Y-91684793D01*
X55095496Y-91854199D01*
X55128545Y-92020349D01*
X55193374Y-92176859D01*
X55287491Y-92317714D01*
X55407278Y-92437501D01*
X55548133Y-92531618D01*
X55704643Y-92596447D01*
X55870793Y-92629496D01*
X56040199Y-92629496D01*
X56206349Y-92596447D01*
X56362859Y-92531618D01*
X56503714Y-92437501D01*
X56623501Y-92317714D01*
X56717618Y-92176859D01*
X56782447Y-92020349D01*
X56815496Y-91854199D01*
X56815496Y-91684793D01*
X56782447Y-91518643D01*
X56717618Y-91362133D01*
X56623501Y-91221278D01*
X56503714Y-91101491D01*
X56362859Y-91007374D01*
X56206349Y-90942545D01*
X56040199Y-90909496D01*
X55870793Y-90909496D01*
X55704643Y-90942545D01*
X55548133Y-91007374D01*
X55407278Y-91101491D01*
X55287491Y-91221278D01*
X55193374Y-91362133D01*
X55128545Y-91518643D01*
X55095496Y-91684793D01*
X54297935Y-91684793D01*
X54323108Y-91624022D01*
X54360000Y-91438552D01*
X54360000Y-91249448D01*
X54323108Y-91063978D01*
X54316904Y-91049000D01*
X54607000Y-91049000D01*
X54825987Y-91002415D01*
X55031678Y-90914003D01*
X55216169Y-90787161D01*
X55372369Y-90626764D01*
X55394094Y-90593297D01*
X65370500Y-90593297D01*
X65370500Y-90762703D01*
X65403549Y-90928853D01*
X65468378Y-91085363D01*
X65562495Y-91226218D01*
X65649277Y-91313000D01*
X65562495Y-91399782D01*
X65468378Y-91540637D01*
X65403549Y-91697147D01*
X65370500Y-91863297D01*
X65370500Y-92032703D01*
X65403549Y-92198853D01*
X65468378Y-92355363D01*
X65562495Y-92496218D01*
X65682282Y-92616005D01*
X65823137Y-92710122D01*
X65979647Y-92774951D01*
X66145797Y-92808000D01*
X66315203Y-92808000D01*
X66481353Y-92774951D01*
X66637863Y-92710122D01*
X66778718Y-92616005D01*
X66898505Y-92496218D01*
X66992622Y-92355363D01*
X67027124Y-92272069D01*
X67052853Y-92266951D01*
X67209363Y-92202122D01*
X67350218Y-92108005D01*
X67470005Y-91988218D01*
X67564122Y-91847363D01*
X67628951Y-91690853D01*
X67662000Y-91524703D01*
X67662000Y-91355297D01*
X67628951Y-91189147D01*
X67564122Y-91032637D01*
X67470005Y-90891782D01*
X67350218Y-90771995D01*
X67209363Y-90677878D01*
X67090500Y-90628643D01*
X67090500Y-90593297D01*
X67089539Y-90588468D01*
X67096218Y-90584005D01*
X67216005Y-90464218D01*
X67310122Y-90323363D01*
X67374951Y-90166853D01*
X67408000Y-90000703D01*
X67408000Y-89831297D01*
X67374951Y-89665147D01*
X67310122Y-89508637D01*
X67303590Y-89498862D01*
X67433853Y-89472951D01*
X67590363Y-89408122D01*
X67731218Y-89314005D01*
X67851005Y-89194218D01*
X67945122Y-89053363D01*
X68009951Y-88896853D01*
X68043000Y-88730703D01*
X68043000Y-88561297D01*
X68042399Y-88558275D01*
X68739022Y-88558275D01*
X68739022Y-88727681D01*
X68772071Y-88893831D01*
X68836900Y-89050341D01*
X68931017Y-89191196D01*
X69050804Y-89310983D01*
X69191659Y-89405100D01*
X69348169Y-89469929D01*
X69514319Y-89502978D01*
X69683725Y-89502978D01*
X69849875Y-89469929D01*
X70006385Y-89405100D01*
X70147240Y-89310983D01*
X70267027Y-89191196D01*
X70361144Y-89050341D01*
X70425973Y-88893831D01*
X70459022Y-88727681D01*
X70459022Y-88558275D01*
X70425973Y-88392125D01*
X70361144Y-88235615D01*
X70334751Y-88196114D01*
X70498183Y-88196114D01*
X70498183Y-88365520D01*
X70531232Y-88531670D01*
X70596061Y-88688180D01*
X70690178Y-88829035D01*
X70809965Y-88948822D01*
X70950820Y-89042939D01*
X71107330Y-89107768D01*
X71273480Y-89140817D01*
X71442886Y-89140817D01*
X71609036Y-89107768D01*
X71765546Y-89042939D01*
X71906401Y-88948822D01*
X72026188Y-88829035D01*
X72120305Y-88688180D01*
X72185134Y-88531670D01*
X72204502Y-88434297D01*
X74324000Y-88434297D01*
X74324000Y-88603703D01*
X74357049Y-88769853D01*
X74421878Y-88926363D01*
X74515995Y-89067218D01*
X74635782Y-89187005D01*
X74776637Y-89281122D01*
X74933147Y-89345951D01*
X75099297Y-89379000D01*
X75268703Y-89379000D01*
X75434853Y-89345951D01*
X75591363Y-89281122D01*
X75732218Y-89187005D01*
X75852005Y-89067218D01*
X75946122Y-88926363D01*
X76010951Y-88769853D01*
X76030433Y-88671908D01*
X76039995Y-88686218D01*
X76159782Y-88806005D01*
X76300637Y-88900122D01*
X76432143Y-88954594D01*
X76371537Y-89045296D01*
X76306708Y-89201806D01*
X76273659Y-89367956D01*
X76273659Y-89537362D01*
X76306708Y-89703512D01*
X76371537Y-89860022D01*
X76465654Y-90000877D01*
X76585441Y-90120664D01*
X76726296Y-90214781D01*
X76882806Y-90279610D01*
X77048956Y-90312659D01*
X77218362Y-90312659D01*
X77384512Y-90279610D01*
X77541022Y-90214781D01*
X77681877Y-90120664D01*
X77778801Y-90023740D01*
X83351000Y-90023740D01*
X83351000Y-90316260D01*
X83408068Y-90603158D01*
X83520010Y-90873411D01*
X83682525Y-91116632D01*
X83889368Y-91323475D01*
X84063760Y-91440000D01*
X83889368Y-91556525D01*
X83682525Y-91763368D01*
X83520010Y-92006589D01*
X83408068Y-92276842D01*
X83351000Y-92563740D01*
X83351000Y-92856260D01*
X83408068Y-93143158D01*
X83520010Y-93413411D01*
X83682525Y-93656632D01*
X83889368Y-93863475D01*
X84063760Y-93980000D01*
X83889368Y-94096525D01*
X83682525Y-94303368D01*
X83520010Y-94546589D01*
X83408068Y-94816842D01*
X83351000Y-95103740D01*
X83351000Y-95396260D01*
X83408068Y-95683158D01*
X83520010Y-95953411D01*
X83682525Y-96196632D01*
X83889368Y-96403475D01*
X84071534Y-96525195D01*
X83954645Y-96594822D01*
X83738412Y-96789731D01*
X83564359Y-97023080D01*
X83439175Y-97285901D01*
X83394524Y-97433110D01*
X83515845Y-97663000D01*
X84709000Y-97663000D01*
X84709000Y-97643000D01*
X84963000Y-97643000D01*
X84963000Y-97663000D01*
X86156155Y-97663000D01*
X86166025Y-97644297D01*
X95406000Y-97644297D01*
X95406000Y-97813703D01*
X95439049Y-97979853D01*
X95503878Y-98136363D01*
X95597995Y-98277218D01*
X95717782Y-98397005D01*
X95858637Y-98491122D01*
X96015147Y-98555951D01*
X96181297Y-98589000D01*
X96350703Y-98589000D01*
X96516853Y-98555951D01*
X96673363Y-98491122D01*
X96814218Y-98397005D01*
X96934005Y-98277218D01*
X97028122Y-98136363D01*
X97092951Y-97979853D01*
X97126000Y-97813703D01*
X97126000Y-97644297D01*
X97092951Y-97478147D01*
X97028122Y-97321637D01*
X96934005Y-97180782D01*
X96814218Y-97060995D01*
X96673363Y-96966878D01*
X96516853Y-96902049D01*
X96350703Y-96869000D01*
X96181297Y-96869000D01*
X96015147Y-96902049D01*
X95858637Y-96966878D01*
X95717782Y-97060995D01*
X95597995Y-97180782D01*
X95503878Y-97321637D01*
X95439049Y-97478147D01*
X95406000Y-97644297D01*
X86166025Y-97644297D01*
X86277476Y-97433110D01*
X86232825Y-97285901D01*
X86107641Y-97023080D01*
X85933588Y-96789731D01*
X85717355Y-96594822D01*
X85600466Y-96525195D01*
X85782632Y-96403475D01*
X85989475Y-96196632D01*
X86151990Y-95953411D01*
X86263932Y-95683158D01*
X86321000Y-95396260D01*
X86321000Y-95103740D01*
X86263932Y-94816842D01*
X86151990Y-94546589D01*
X85989475Y-94303368D01*
X85782632Y-94096525D01*
X85608240Y-93980000D01*
X85782632Y-93863475D01*
X85989475Y-93656632D01*
X86151990Y-93413411D01*
X86263932Y-93143158D01*
X86321000Y-92856260D01*
X86321000Y-92563740D01*
X86263932Y-92276842D01*
X86197847Y-92117297D01*
X95406000Y-92117297D01*
X95406000Y-92286703D01*
X95439049Y-92452853D01*
X95503878Y-92609363D01*
X95597995Y-92750218D01*
X95621277Y-92773500D01*
X95597995Y-92796782D01*
X95503878Y-92937637D01*
X95439049Y-93094147D01*
X95406000Y-93260297D01*
X95406000Y-93429703D01*
X95439049Y-93595853D01*
X95503878Y-93752363D01*
X95593840Y-93887000D01*
X95503878Y-94021637D01*
X95439049Y-94178147D01*
X95406000Y-94344297D01*
X95406000Y-94513703D01*
X95439049Y-94679853D01*
X95503878Y-94836363D01*
X95597995Y-94977218D01*
X95599777Y-94979000D01*
X95597995Y-94980782D01*
X95503878Y-95121637D01*
X95439049Y-95278147D01*
X95406000Y-95444297D01*
X95406000Y-95613703D01*
X95439049Y-95779853D01*
X95503878Y-95936363D01*
X95597995Y-96077218D01*
X95717782Y-96197005D01*
X95858637Y-96291122D01*
X96015147Y-96355951D01*
X96181297Y-96389000D01*
X96350703Y-96389000D01*
X96516853Y-96355951D01*
X96673363Y-96291122D01*
X96814218Y-96197005D01*
X96934005Y-96077218D01*
X97028122Y-95936363D01*
X97092951Y-95779853D01*
X97126000Y-95613703D01*
X97126000Y-95444297D01*
X97092951Y-95278147D01*
X97028122Y-95121637D01*
X96934005Y-94980782D01*
X96932223Y-94979000D01*
X96934005Y-94977218D01*
X97028122Y-94836363D01*
X97092951Y-94679853D01*
X97126000Y-94513703D01*
X97126000Y-94344297D01*
X97092951Y-94178147D01*
X97028122Y-94021637D01*
X96938160Y-93887000D01*
X97028122Y-93752363D01*
X97092951Y-93595853D01*
X97126000Y-93429703D01*
X97126000Y-93260297D01*
X97092951Y-93094147D01*
X97028122Y-92937637D01*
X96934005Y-92796782D01*
X96910723Y-92773500D01*
X96934005Y-92750218D01*
X97028122Y-92609363D01*
X97092951Y-92452853D01*
X97126000Y-92286703D01*
X97126000Y-92117297D01*
X97092951Y-91951147D01*
X97028122Y-91794637D01*
X96934005Y-91653782D01*
X96814218Y-91533995D01*
X96673363Y-91439878D01*
X96516853Y-91375049D01*
X96350703Y-91342000D01*
X96181297Y-91342000D01*
X96015147Y-91375049D01*
X95858637Y-91439878D01*
X95717782Y-91533995D01*
X95597995Y-91653782D01*
X95503878Y-91794637D01*
X95439049Y-91951147D01*
X95406000Y-92117297D01*
X86197847Y-92117297D01*
X86151990Y-92006589D01*
X85989475Y-91763368D01*
X85782632Y-91556525D01*
X85608240Y-91440000D01*
X85782632Y-91323475D01*
X85989475Y-91116632D01*
X86151990Y-90873411D01*
X86263932Y-90603158D01*
X86321000Y-90316260D01*
X86321000Y-90023740D01*
X86263932Y-89736842D01*
X86151990Y-89466589D01*
X85989475Y-89223368D01*
X85782632Y-89016525D01*
X85539411Y-88854010D01*
X85269158Y-88742068D01*
X84982260Y-88685000D01*
X84689740Y-88685000D01*
X84402842Y-88742068D01*
X84132589Y-88854010D01*
X83889368Y-89016525D01*
X83682525Y-89223368D01*
X83520010Y-89466589D01*
X83408068Y-89736842D01*
X83351000Y-90023740D01*
X77778801Y-90023740D01*
X77801664Y-90000877D01*
X77895781Y-89860022D01*
X77960610Y-89703512D01*
X77993659Y-89537362D01*
X77993659Y-89370664D01*
X78011005Y-89353318D01*
X78105122Y-89212463D01*
X78169951Y-89055953D01*
X78203000Y-88889803D01*
X78203000Y-88720397D01*
X78169951Y-88554247D01*
X78105122Y-88397737D01*
X78011005Y-88256882D01*
X77891218Y-88137095D01*
X77750363Y-88042978D01*
X77593853Y-87978149D01*
X77551371Y-87969699D01*
X77534951Y-87887147D01*
X77470122Y-87730637D01*
X77376005Y-87589782D01*
X77256218Y-87469995D01*
X77115363Y-87375878D01*
X76958853Y-87311049D01*
X76792703Y-87278000D01*
X76623297Y-87278000D01*
X76457147Y-87311049D01*
X76300637Y-87375878D01*
X76159782Y-87469995D01*
X76039995Y-87589782D01*
X75945878Y-87730637D01*
X75881049Y-87887147D01*
X75861567Y-87985092D01*
X75852005Y-87970782D01*
X75732218Y-87850995D01*
X75591363Y-87756878D01*
X75434853Y-87692049D01*
X75268703Y-87659000D01*
X75099297Y-87659000D01*
X74933147Y-87692049D01*
X74776637Y-87756878D01*
X74635782Y-87850995D01*
X74515995Y-87970782D01*
X74421878Y-88111637D01*
X74357049Y-88268147D01*
X74324000Y-88434297D01*
X72204502Y-88434297D01*
X72218183Y-88365520D01*
X72218183Y-88196114D01*
X72185134Y-88029964D01*
X72120305Y-87873454D01*
X72026188Y-87732599D01*
X71906401Y-87612812D01*
X71765546Y-87518695D01*
X71609036Y-87453866D01*
X71442886Y-87420817D01*
X71273480Y-87420817D01*
X71107330Y-87453866D01*
X70950820Y-87518695D01*
X70809965Y-87612812D01*
X70690178Y-87732599D01*
X70596061Y-87873454D01*
X70531232Y-88029964D01*
X70498183Y-88196114D01*
X70334751Y-88196114D01*
X70267027Y-88094760D01*
X70147240Y-87974973D01*
X70006385Y-87880856D01*
X69849875Y-87816027D01*
X69683725Y-87782978D01*
X69514319Y-87782978D01*
X69348169Y-87816027D01*
X69191659Y-87880856D01*
X69050804Y-87974973D01*
X68931017Y-88094760D01*
X68836900Y-88235615D01*
X68772071Y-88392125D01*
X68739022Y-88558275D01*
X68042399Y-88558275D01*
X68009951Y-88395147D01*
X67945122Y-88238637D01*
X67851005Y-88097782D01*
X67731218Y-87977995D01*
X67590363Y-87883878D01*
X67433853Y-87819049D01*
X67267703Y-87786000D01*
X67098297Y-87786000D01*
X66932147Y-87819049D01*
X66775637Y-87883878D01*
X66634782Y-87977995D01*
X66514995Y-88097782D01*
X66420878Y-88238637D01*
X66356049Y-88395147D01*
X66323000Y-88561297D01*
X66323000Y-88730703D01*
X66356049Y-88896853D01*
X66420878Y-89053363D01*
X66427410Y-89063138D01*
X66297147Y-89089049D01*
X66140637Y-89153878D01*
X65999782Y-89247995D01*
X65879995Y-89367782D01*
X65785878Y-89508637D01*
X65721049Y-89665147D01*
X65688000Y-89831297D01*
X65688000Y-90000703D01*
X65688961Y-90005532D01*
X65682282Y-90009995D01*
X65562495Y-90129782D01*
X65468378Y-90270637D01*
X65403549Y-90427147D01*
X65370500Y-90593297D01*
X55394094Y-90593297D01*
X55494276Y-90438976D01*
X55574119Y-90215874D01*
X55447954Y-90041000D01*
X54057000Y-90041000D01*
X54057000Y-90061000D01*
X53803000Y-90061000D01*
X53803000Y-90041000D01*
X52412046Y-90041000D01*
X52285881Y-90215874D01*
X51144119Y-90215874D01*
X51017954Y-90041000D01*
X49877000Y-90041000D01*
X49623000Y-90041000D01*
X49603000Y-90041000D01*
X49603000Y-89787000D01*
X49623000Y-89787000D01*
X49623000Y-88779000D01*
X49877000Y-88779000D01*
X49877000Y-89787000D01*
X51017954Y-89787000D01*
X51144119Y-89612126D01*
X52285881Y-89612126D01*
X52412046Y-89787000D01*
X53803000Y-89787000D01*
X53803000Y-88779000D01*
X54057000Y-88779000D01*
X54057000Y-89787000D01*
X55447954Y-89787000D01*
X55574119Y-89612126D01*
X55494276Y-89389024D01*
X55372369Y-89201236D01*
X55216169Y-89040839D01*
X55031678Y-88913997D01*
X54825987Y-88825585D01*
X54607000Y-88779000D01*
X54057000Y-88779000D01*
X53803000Y-88779000D01*
X53253000Y-88779000D01*
X53034013Y-88825585D01*
X52828322Y-88913997D01*
X52643831Y-89040839D01*
X52487631Y-89201236D01*
X52365724Y-89389024D01*
X52285881Y-89612126D01*
X51144119Y-89612126D01*
X51064276Y-89389024D01*
X50942369Y-89201236D01*
X50786169Y-89040839D01*
X50601678Y-88913997D01*
X50395987Y-88825585D01*
X50177000Y-88779000D01*
X49877000Y-88779000D01*
X49623000Y-88779000D01*
X49323000Y-88779000D01*
X49104013Y-88825585D01*
X49060000Y-88844503D01*
X49060000Y-86815128D01*
X49129740Y-86829000D01*
X49422260Y-86829000D01*
X49709158Y-86771932D01*
X49979411Y-86659990D01*
X50222632Y-86497475D01*
X50429475Y-86290632D01*
X50546000Y-86116240D01*
X50662525Y-86290632D01*
X50869368Y-86497475D01*
X51112589Y-86659990D01*
X51382842Y-86771932D01*
X51669740Y-86829000D01*
X51962260Y-86829000D01*
X52249158Y-86771932D01*
X52519411Y-86659990D01*
X52762632Y-86497475D01*
X52969475Y-86290632D01*
X53091195Y-86108466D01*
X53160822Y-86225355D01*
X53355731Y-86441588D01*
X53589080Y-86615641D01*
X53851901Y-86740825D01*
X53999110Y-86785476D01*
X54229000Y-86664155D01*
X54229000Y-85471000D01*
X54209000Y-85471000D01*
X54209000Y-85217000D01*
X54229000Y-85217000D01*
X54229000Y-85197000D01*
X54483000Y-85197000D01*
X54483000Y-85217000D01*
G37*
X54483000Y-85217000D02*
X54503000Y-85217000D01*
X54503000Y-85471000D01*
X54483000Y-85471000D01*
X54483000Y-86664155D01*
X54712890Y-86785476D01*
X54860099Y-86740825D01*
X55122920Y-86615641D01*
X55356269Y-86441588D01*
X55551178Y-86225355D01*
X55620805Y-86108466D01*
X55742525Y-86290632D01*
X55949368Y-86497475D01*
X56192589Y-86659990D01*
X56462842Y-86771932D01*
X56749740Y-86829000D01*
X57042260Y-86829000D01*
X57329158Y-86771932D01*
X57599411Y-86659990D01*
X57842632Y-86497475D01*
X58049475Y-86290632D01*
X58166000Y-86116240D01*
X58282525Y-86290632D01*
X58489368Y-86497475D01*
X58732589Y-86659990D01*
X59002842Y-86771932D01*
X59289740Y-86829000D01*
X59582260Y-86829000D01*
X59869158Y-86771932D01*
X60139411Y-86659990D01*
X60382632Y-86497475D01*
X60589475Y-86290632D01*
X60706000Y-86116240D01*
X60822525Y-86290632D01*
X61029368Y-86497475D01*
X61272589Y-86659990D01*
X61542842Y-86771932D01*
X61829740Y-86829000D01*
X62122260Y-86829000D01*
X62409158Y-86771932D01*
X62679411Y-86659990D01*
X62922632Y-86497475D01*
X63129475Y-86290632D01*
X63246000Y-86116240D01*
X63362525Y-86290632D01*
X63569368Y-86497475D01*
X63812589Y-86659990D01*
X64082842Y-86771932D01*
X64369740Y-86829000D01*
X64662260Y-86829000D01*
X64949158Y-86771932D01*
X65219411Y-86659990D01*
X65462632Y-86497475D01*
X65669475Y-86290632D01*
X65786000Y-86116240D01*
X65902525Y-86290632D01*
X66109368Y-86497475D01*
X66352589Y-86659990D01*
X66622842Y-86771932D01*
X66909740Y-86829000D01*
X67202260Y-86829000D01*
X67489158Y-86771932D01*
X67759411Y-86659990D01*
X68002632Y-86497475D01*
X68209475Y-86290632D01*
X68326000Y-86116240D01*
X68442525Y-86290632D01*
X68649368Y-86497475D01*
X68892589Y-86659990D01*
X69162842Y-86771932D01*
X69449740Y-86829000D01*
X69742260Y-86829000D01*
X70029158Y-86771932D01*
X70299411Y-86659990D01*
X70542632Y-86497475D01*
X70749475Y-86290632D01*
X70866000Y-86116240D01*
X70982525Y-86290632D01*
X71189368Y-86497475D01*
X71432589Y-86659990D01*
X71702842Y-86771932D01*
X71989740Y-86829000D01*
X72282260Y-86829000D01*
X72569158Y-86771932D01*
X72839411Y-86659990D01*
X73082632Y-86497475D01*
X73289475Y-86290632D01*
X73406000Y-86116240D01*
X73522525Y-86290632D01*
X73729368Y-86497475D01*
X73972589Y-86659990D01*
X74242842Y-86771932D01*
X74529740Y-86829000D01*
X74822260Y-86829000D01*
X75109158Y-86771932D01*
X75379411Y-86659990D01*
X75622632Y-86497475D01*
X75829475Y-86290632D01*
X75946000Y-86116240D01*
X76062525Y-86290632D01*
X76269368Y-86497475D01*
X76512589Y-86659990D01*
X76782842Y-86771932D01*
X77069740Y-86829000D01*
X77362260Y-86829000D01*
X77649158Y-86771932D01*
X77919411Y-86659990D01*
X78162632Y-86497475D01*
X78369475Y-86290632D01*
X78486000Y-86116240D01*
X78602525Y-86290632D01*
X78809368Y-86497475D01*
X79052589Y-86659990D01*
X79322842Y-86771932D01*
X79609740Y-86829000D01*
X79902260Y-86829000D01*
X80189158Y-86771932D01*
X80459411Y-86659990D01*
X80702632Y-86497475D01*
X80909475Y-86290632D01*
X81026000Y-86116240D01*
X81142525Y-86290632D01*
X81349368Y-86497475D01*
X81592589Y-86659990D01*
X81862842Y-86771932D01*
X82149740Y-86829000D01*
X82442260Y-86829000D01*
X82729158Y-86771932D01*
X82999411Y-86659990D01*
X83242632Y-86497475D01*
X83449475Y-86290632D01*
X83566000Y-86116240D01*
X83682525Y-86290632D01*
X83889368Y-86497475D01*
X84132589Y-86659990D01*
X84402842Y-86771932D01*
X84689740Y-86829000D01*
X84982260Y-86829000D01*
X85269158Y-86771932D01*
X85539411Y-86659990D01*
X85782632Y-86497475D01*
X85989475Y-86290632D01*
X86106000Y-86116240D01*
X86222525Y-86290632D01*
X86429368Y-86497475D01*
X86672589Y-86659990D01*
X86942842Y-86771932D01*
X87229740Y-86829000D01*
X87522260Y-86829000D01*
X87809158Y-86771932D01*
X88079411Y-86659990D01*
X88322632Y-86497475D01*
X88529475Y-86290632D01*
X88646000Y-86116240D01*
X88762525Y-86290632D01*
X88969368Y-86497475D01*
X89212589Y-86659990D01*
X89482842Y-86771932D01*
X89769740Y-86829000D01*
X90062260Y-86829000D01*
X90349158Y-86771932D01*
X90619411Y-86659990D01*
X90862632Y-86497475D01*
X91069475Y-86290632D01*
X91186000Y-86116240D01*
X91302525Y-86290632D01*
X91509368Y-86497475D01*
X91752589Y-86659990D01*
X92022842Y-86771932D01*
X92309740Y-86829000D01*
X92602260Y-86829000D01*
X92889158Y-86771932D01*
X93159411Y-86659990D01*
X93402632Y-86497475D01*
X93609475Y-86290632D01*
X93726000Y-86116240D01*
X93842525Y-86290632D01*
X94049368Y-86497475D01*
X94292589Y-86659990D01*
X94562842Y-86771932D01*
X94849740Y-86829000D01*
X95142260Y-86829000D01*
X95429158Y-86771932D01*
X95699411Y-86659990D01*
X95942632Y-86497475D01*
X96149475Y-86290632D01*
X96266000Y-86116240D01*
X96382525Y-86290632D01*
X96589368Y-86497475D01*
X96832589Y-86659990D01*
X97102842Y-86771932D01*
X97389740Y-86829000D01*
X97682260Y-86829000D01*
X97740000Y-86817515D01*
X97740001Y-101650485D01*
X97682260Y-101639000D01*
X97389740Y-101639000D01*
X97102842Y-101696068D01*
X96832589Y-101808010D01*
X96589368Y-101970525D01*
X96382525Y-102177368D01*
X96266000Y-102351760D01*
X96149475Y-102177368D01*
X95942632Y-101970525D01*
X95699411Y-101808010D01*
X95429158Y-101696068D01*
X95142260Y-101639000D01*
X94849740Y-101639000D01*
X94562842Y-101696068D01*
X94292589Y-101808010D01*
X94049368Y-101970525D01*
X93842525Y-102177368D01*
X93726000Y-102351760D01*
X93609475Y-102177368D01*
X93402632Y-101970525D01*
X93159411Y-101808010D01*
X92889158Y-101696068D01*
X92602260Y-101639000D01*
X92309740Y-101639000D01*
X92022842Y-101696068D01*
X91752589Y-101808010D01*
X91509368Y-101970525D01*
X91302525Y-102177368D01*
X91186000Y-102351760D01*
X91069475Y-102177368D01*
X90862632Y-101970525D01*
X90619411Y-101808010D01*
X90349158Y-101696068D01*
X90062260Y-101639000D01*
X89769740Y-101639000D01*
X89482842Y-101696068D01*
X89212589Y-101808010D01*
X88969368Y-101970525D01*
X88762525Y-102177368D01*
X88646000Y-102351760D01*
X88529475Y-102177368D01*
X88322632Y-101970525D01*
X88079411Y-101808010D01*
X87809158Y-101696068D01*
X87522260Y-101639000D01*
X87229740Y-101639000D01*
X86942842Y-101696068D01*
X86672589Y-101808010D01*
X86429368Y-101970525D01*
X86222525Y-102177368D01*
X86106000Y-102351760D01*
X85989475Y-102177368D01*
X85782632Y-101970525D01*
X85539411Y-101808010D01*
X85269158Y-101696068D01*
X84982260Y-101639000D01*
X84689740Y-101639000D01*
X84402842Y-101696068D01*
X84132589Y-101808010D01*
X83889368Y-101970525D01*
X83682525Y-102177368D01*
X83566000Y-102351760D01*
X83449475Y-102177368D01*
X83242632Y-101970525D01*
X82999411Y-101808010D01*
X82729158Y-101696068D01*
X82442260Y-101639000D01*
X82149740Y-101639000D01*
X81862842Y-101696068D01*
X81592589Y-101808010D01*
X81349368Y-101970525D01*
X81142525Y-102177368D01*
X81026000Y-102351760D01*
X80909475Y-102177368D01*
X80702632Y-101970525D01*
X80459411Y-101808010D01*
X80189158Y-101696068D01*
X79902260Y-101639000D01*
X79609740Y-101639000D01*
X79322842Y-101696068D01*
X79052589Y-101808010D01*
X78809368Y-101970525D01*
X78602525Y-102177368D01*
X78486000Y-102351760D01*
X78369475Y-102177368D01*
X78162632Y-101970525D01*
X77919411Y-101808010D01*
X77649158Y-101696068D01*
X77362260Y-101639000D01*
X77069740Y-101639000D01*
X76782842Y-101696068D01*
X76512589Y-101808010D01*
X76269368Y-101970525D01*
X76062525Y-102177368D01*
X75946000Y-102351760D01*
X75829475Y-102177368D01*
X75622632Y-101970525D01*
X75379411Y-101808010D01*
X75109158Y-101696068D01*
X74822260Y-101639000D01*
X74529740Y-101639000D01*
X74242842Y-101696068D01*
X73972589Y-101808010D01*
X73729368Y-101970525D01*
X73522525Y-102177368D01*
X73406000Y-102351760D01*
X73289475Y-102177368D01*
X73082632Y-101970525D01*
X72839411Y-101808010D01*
X72569158Y-101696068D01*
X72282260Y-101639000D01*
X71989740Y-101639000D01*
X71702842Y-101696068D01*
X71432589Y-101808010D01*
X71189368Y-101970525D01*
X70982525Y-102177368D01*
X70866000Y-102351760D01*
X70749475Y-102177368D01*
X70542632Y-101970525D01*
X70299411Y-101808010D01*
X70029158Y-101696068D01*
X69742260Y-101639000D01*
X69449740Y-101639000D01*
X69162842Y-101696068D01*
X68892589Y-101808010D01*
X68649368Y-101970525D01*
X68442525Y-102177368D01*
X68326000Y-102351760D01*
X68209475Y-102177368D01*
X68002632Y-101970525D01*
X67759411Y-101808010D01*
X67489158Y-101696068D01*
X67202260Y-101639000D01*
X66909740Y-101639000D01*
X66622842Y-101696068D01*
X66396861Y-101789672D01*
X66421122Y-101753363D01*
X66485951Y-101596853D01*
X66519000Y-101430703D01*
X66519000Y-101261297D01*
X66485951Y-101095147D01*
X66421122Y-100938637D01*
X66327005Y-100797782D01*
X66207218Y-100677995D01*
X66066363Y-100583878D01*
X65909853Y-100519049D01*
X65743703Y-100486000D01*
X65574297Y-100486000D01*
X65408147Y-100519049D01*
X65251637Y-100583878D01*
X65110782Y-100677995D01*
X64990995Y-100797782D01*
X64896878Y-100938637D01*
X64832049Y-101095147D01*
X64799000Y-101261297D01*
X64799000Y-101430703D01*
X64832049Y-101596853D01*
X64866320Y-101679590D01*
X64662260Y-101639000D01*
X64369740Y-101639000D01*
X64082842Y-101696068D01*
X63812589Y-101808010D01*
X63569368Y-101970525D01*
X63362525Y-102177368D01*
X63246000Y-102351760D01*
X63129475Y-102177368D01*
X62922632Y-101970525D01*
X62679411Y-101808010D01*
X62409158Y-101696068D01*
X62122260Y-101639000D01*
X61829740Y-101639000D01*
X61542842Y-101696068D01*
X61272589Y-101808010D01*
X61029368Y-101970525D01*
X60822525Y-102177368D01*
X60706000Y-102351760D01*
X60589475Y-102177368D01*
X60382632Y-101970525D01*
X60139411Y-101808010D01*
X59869158Y-101696068D01*
X59582260Y-101639000D01*
X59289740Y-101639000D01*
X59002842Y-101696068D01*
X58732589Y-101808010D01*
X58489368Y-101970525D01*
X58282525Y-102177368D01*
X58166000Y-102351760D01*
X58049475Y-102177368D01*
X57842632Y-101970525D01*
X57599411Y-101808010D01*
X57329158Y-101696068D01*
X57042260Y-101639000D01*
X56749740Y-101639000D01*
X56462842Y-101696068D01*
X56192589Y-101808010D01*
X55949368Y-101970525D01*
X55742525Y-102177368D01*
X55620805Y-102359534D01*
X55551178Y-102242645D01*
X55356269Y-102026412D01*
X55122920Y-101852359D01*
X54860099Y-101727175D01*
X54712890Y-101682524D01*
X54483000Y-101803845D01*
X54483000Y-102997000D01*
X54503000Y-102997000D01*
X54503000Y-103251000D01*
X54483000Y-103251000D01*
X54483000Y-103271000D01*
X54229000Y-103271000D01*
X54229000Y-103251000D01*
X54209000Y-103251000D01*
X54209000Y-102997000D01*
X54229000Y-102997000D01*
X54229000Y-101803845D01*
X53999110Y-101682524D01*
X53851901Y-101727175D01*
X53589080Y-101852359D01*
X53355731Y-102026412D01*
X53160822Y-102242645D01*
X53091195Y-102359534D01*
X52969475Y-102177368D01*
X52762632Y-101970525D01*
X52519411Y-101808010D01*
X52249158Y-101696068D01*
X51962260Y-101639000D01*
X51669740Y-101639000D01*
X51382842Y-101696068D01*
X51112589Y-101808010D01*
X50869368Y-101970525D01*
X50662525Y-102177368D01*
X50546000Y-102351760D01*
X50429475Y-102177368D01*
X50222632Y-101970525D01*
X49979411Y-101808010D01*
X49709158Y-101696068D01*
X49422260Y-101639000D01*
X49129740Y-101639000D01*
X49060000Y-101652872D01*
X49060000Y-99623497D01*
X49104013Y-99642415D01*
X49323000Y-99689000D01*
X49623000Y-99689000D01*
X49623000Y-98681000D01*
X49877000Y-98681000D01*
X49877000Y-99689000D01*
X50177000Y-99689000D01*
X50395987Y-99642415D01*
X50601678Y-99554003D01*
X50786169Y-99427161D01*
X50942369Y-99266764D01*
X51064276Y-99078976D01*
X51144119Y-98855874D01*
X52285881Y-98855874D01*
X52365724Y-99078976D01*
X52487631Y-99266764D01*
X52643831Y-99427161D01*
X52828322Y-99554003D01*
X53034013Y-99642415D01*
X53253000Y-99689000D01*
X53803000Y-99689000D01*
X53803000Y-98681000D01*
X54057000Y-98681000D01*
X54057000Y-99689000D01*
X54607000Y-99689000D01*
X54825987Y-99642415D01*
X55031678Y-99554003D01*
X55216169Y-99427161D01*
X55372369Y-99266764D01*
X55494276Y-99078976D01*
X55502392Y-99056297D01*
X58368000Y-99056297D01*
X58368000Y-99225703D01*
X58401049Y-99391853D01*
X58465878Y-99548363D01*
X58559995Y-99689218D01*
X58679782Y-99809005D01*
X58820637Y-99903122D01*
X58977147Y-99967951D01*
X59143297Y-100001000D01*
X59312703Y-100001000D01*
X59478853Y-99967951D01*
X59635363Y-99903122D01*
X59776218Y-99809005D01*
X59847926Y-99737297D01*
X62132000Y-99737297D01*
X62132000Y-99906703D01*
X62165049Y-100072853D01*
X62229878Y-100229363D01*
X62323995Y-100370218D01*
X62443782Y-100490005D01*
X62584637Y-100584122D01*
X62741147Y-100648951D01*
X62907297Y-100682000D01*
X63076703Y-100682000D01*
X63242853Y-100648951D01*
X63399363Y-100584122D01*
X63540218Y-100490005D01*
X63660005Y-100370218D01*
X63754122Y-100229363D01*
X63818951Y-100072853D01*
X63852000Y-99906703D01*
X63852000Y-99737297D01*
X63818951Y-99571147D01*
X63754122Y-99414637D01*
X63660005Y-99273782D01*
X63540218Y-99153995D01*
X63399363Y-99059878D01*
X63242853Y-98995049D01*
X63076703Y-98962000D01*
X62907297Y-98962000D01*
X62741147Y-98995049D01*
X62584637Y-99059878D01*
X62443782Y-99153995D01*
X62323995Y-99273782D01*
X62229878Y-99414637D01*
X62165049Y-99571147D01*
X62132000Y-99737297D01*
X59847926Y-99737297D01*
X59896005Y-99689218D01*
X59990122Y-99548363D01*
X60054951Y-99391853D01*
X60088000Y-99225703D01*
X60088000Y-99056297D01*
X60054951Y-98890147D01*
X59990122Y-98733637D01*
X59896005Y-98592782D01*
X59776218Y-98472995D01*
X59635363Y-98378878D01*
X59478853Y-98314049D01*
X59312703Y-98281000D01*
X59143297Y-98281000D01*
X58977147Y-98314049D01*
X58820637Y-98378878D01*
X58679782Y-98472995D01*
X58559995Y-98592782D01*
X58465878Y-98733637D01*
X58401049Y-98890147D01*
X58368000Y-99056297D01*
X55502392Y-99056297D01*
X55574119Y-98855874D01*
X55447954Y-98681000D01*
X54057000Y-98681000D01*
X53803000Y-98681000D01*
X52412046Y-98681000D01*
X52285881Y-98855874D01*
X51144119Y-98855874D01*
X51017954Y-98681000D01*
X49877000Y-98681000D01*
X49623000Y-98681000D01*
X49603000Y-98681000D01*
X49603000Y-98427000D01*
X49623000Y-98427000D01*
X49623000Y-97419000D01*
X49877000Y-97419000D01*
X49877000Y-98427000D01*
X51017954Y-98427000D01*
X51144119Y-98252126D01*
X52285881Y-98252126D01*
X52412046Y-98427000D01*
X53803000Y-98427000D01*
X53803000Y-98407000D01*
X54057000Y-98407000D01*
X54057000Y-98427000D01*
X55447954Y-98427000D01*
X55574119Y-98252126D01*
X55494276Y-98029024D01*
X55372369Y-97841236D01*
X55322474Y-97790000D01*
X65151000Y-97790000D01*
X65153440Y-97814776D01*
X65160667Y-97838601D01*
X65172403Y-97860557D01*
X65188197Y-97879803D01*
X66204197Y-98895803D01*
X66223443Y-98911597D01*
X66245399Y-98923333D01*
X66269224Y-98930560D01*
X66294000Y-98933000D01*
X66318776Y-98930560D01*
X66342601Y-98923333D01*
X66364557Y-98911597D01*
X66383803Y-98895803D01*
X67371308Y-97908298D01*
X67403995Y-97957218D01*
X67523782Y-98077005D01*
X67664637Y-98171122D01*
X67821147Y-98235951D01*
X67987297Y-98269000D01*
X68156703Y-98269000D01*
X68322853Y-98235951D01*
X68355000Y-98222635D01*
X68355000Y-98255703D01*
X68388049Y-98421853D01*
X68452878Y-98578363D01*
X68546995Y-98719218D01*
X68666782Y-98839005D01*
X68807637Y-98933122D01*
X68915995Y-98978005D01*
X68960878Y-99086363D01*
X69054995Y-99227218D01*
X69174782Y-99347005D01*
X69315637Y-99441122D01*
X69423995Y-99486005D01*
X69468878Y-99594363D01*
X69562995Y-99735218D01*
X69682782Y-99855005D01*
X69823637Y-99949122D01*
X69962765Y-100006751D01*
X70002369Y-100102363D01*
X70096486Y-100243218D01*
X70216273Y-100363005D01*
X70357128Y-100457122D01*
X70513638Y-100521951D01*
X70679788Y-100555000D01*
X70849194Y-100555000D01*
X71015344Y-100521951D01*
X71022000Y-100519194D01*
X71022000Y-100541703D01*
X71055049Y-100707853D01*
X71119878Y-100864363D01*
X71213995Y-101005218D01*
X71333782Y-101125005D01*
X71474637Y-101219122D01*
X71631147Y-101283951D01*
X71797297Y-101317000D01*
X71966703Y-101317000D01*
X72132853Y-101283951D01*
X72289363Y-101219122D01*
X72430218Y-101125005D01*
X72550005Y-101005218D01*
X72644122Y-100864363D01*
X72690127Y-100753297D01*
X74578000Y-100753297D01*
X74578000Y-100922703D01*
X74611049Y-101088853D01*
X74675878Y-101245363D01*
X74769995Y-101386218D01*
X74889782Y-101506005D01*
X75030637Y-101600122D01*
X75187147Y-101664951D01*
X75353297Y-101698000D01*
X75522703Y-101698000D01*
X75688853Y-101664951D01*
X75845363Y-101600122D01*
X75986218Y-101506005D01*
X76106005Y-101386218D01*
X76200122Y-101245363D01*
X76264951Y-101088853D01*
X76298000Y-100922703D01*
X76298000Y-100753297D01*
X76264951Y-100587147D01*
X76200122Y-100430637D01*
X76106005Y-100289782D01*
X75986218Y-100169995D01*
X75845363Y-100075878D01*
X75688853Y-100011049D01*
X75522703Y-99978000D01*
X75353297Y-99978000D01*
X75187147Y-100011049D01*
X75030637Y-100075878D01*
X74889782Y-100169995D01*
X74769995Y-100289782D01*
X74675878Y-100430637D01*
X74611049Y-100587147D01*
X74578000Y-100753297D01*
X72690127Y-100753297D01*
X72708951Y-100707853D01*
X72742000Y-100541703D01*
X72742000Y-100372297D01*
X72708951Y-100206147D01*
X72644122Y-100049637D01*
X72550005Y-99908782D01*
X72430218Y-99788995D01*
X72289363Y-99694878D01*
X72132853Y-99630049D01*
X71966703Y-99597000D01*
X71797297Y-99597000D01*
X71631147Y-99630049D01*
X71624491Y-99632806D01*
X71624491Y-99610297D01*
X71591442Y-99444147D01*
X71526613Y-99287637D01*
X71432496Y-99146782D01*
X71312709Y-99026995D01*
X71171854Y-98932878D01*
X71032726Y-98875249D01*
X70993122Y-98779637D01*
X70899005Y-98638782D01*
X70779218Y-98518995D01*
X70638363Y-98424878D01*
X70587469Y-98403797D01*
X75784500Y-98403797D01*
X75784500Y-98573203D01*
X75817549Y-98739353D01*
X75882378Y-98895863D01*
X75976495Y-99036718D01*
X76096282Y-99156505D01*
X76237137Y-99250622D01*
X76393647Y-99315451D01*
X76559797Y-99348500D01*
X76729203Y-99348500D01*
X76895353Y-99315451D01*
X77051863Y-99250622D01*
X77192718Y-99156505D01*
X77312505Y-99036718D01*
X77406622Y-98895863D01*
X77471451Y-98739353D01*
X77504500Y-98573203D01*
X77504500Y-98403797D01*
X77471451Y-98237647D01*
X77406622Y-98081137D01*
X77312505Y-97940282D01*
X77192718Y-97820495D01*
X77051863Y-97726378D01*
X76895353Y-97661549D01*
X76729203Y-97628500D01*
X76559797Y-97628500D01*
X76393647Y-97661549D01*
X76237137Y-97726378D01*
X76096282Y-97820495D01*
X75976495Y-97940282D01*
X75882378Y-98081137D01*
X75817549Y-98237647D01*
X75784500Y-98403797D01*
X70587469Y-98403797D01*
X70530005Y-98379995D01*
X70485122Y-98271637D01*
X70391005Y-98130782D01*
X70271218Y-98010995D01*
X70130363Y-97916878D01*
X70022005Y-97871995D01*
X69977122Y-97763637D01*
X69883005Y-97622782D01*
X69763218Y-97502995D01*
X69627367Y-97412221D01*
X78300076Y-97412221D01*
X78300076Y-97581627D01*
X78333125Y-97747777D01*
X78397954Y-97904287D01*
X78492071Y-98045142D01*
X78611858Y-98164929D01*
X78752713Y-98259046D01*
X78909223Y-98323875D01*
X79075373Y-98356924D01*
X79244779Y-98356924D01*
X79410929Y-98323875D01*
X79567439Y-98259046D01*
X79708294Y-98164929D01*
X79726333Y-98146890D01*
X83394524Y-98146890D01*
X83439175Y-98294099D01*
X83564359Y-98556920D01*
X83738412Y-98790269D01*
X83954645Y-98985178D01*
X84204748Y-99134157D01*
X84479109Y-99231481D01*
X84709000Y-99110814D01*
X84709000Y-97917000D01*
X84963000Y-97917000D01*
X84963000Y-99110814D01*
X85192891Y-99231481D01*
X85467252Y-99134157D01*
X85717355Y-98985178D01*
X85933588Y-98790269D01*
X86107641Y-98556920D01*
X86232825Y-98294099D01*
X86277476Y-98146890D01*
X86156155Y-97917000D01*
X84963000Y-97917000D01*
X84709000Y-97917000D01*
X83515845Y-97917000D01*
X83394524Y-98146890D01*
X79726333Y-98146890D01*
X79828081Y-98045142D01*
X79922198Y-97904287D01*
X79987027Y-97747777D01*
X80020076Y-97581627D01*
X80020076Y-97412221D01*
X79987027Y-97246071D01*
X79922198Y-97089561D01*
X79828081Y-96948706D01*
X79708294Y-96828919D01*
X79567439Y-96734802D01*
X79410929Y-96669973D01*
X79244779Y-96636924D01*
X79075373Y-96636924D01*
X78909223Y-96669973D01*
X78752713Y-96734802D01*
X78611858Y-96828919D01*
X78492071Y-96948706D01*
X78397954Y-97089561D01*
X78333125Y-97246071D01*
X78300076Y-97412221D01*
X69627367Y-97412221D01*
X69622363Y-97408878D01*
X69540125Y-97374814D01*
X69567000Y-97239703D01*
X69567000Y-97070297D01*
X69533951Y-96904147D01*
X69469122Y-96747637D01*
X69375005Y-96606782D01*
X69255218Y-96486995D01*
X69114363Y-96392878D01*
X68957853Y-96328049D01*
X68791703Y-96295000D01*
X68622297Y-96295000D01*
X68456147Y-96328049D01*
X68299637Y-96392878D01*
X68158782Y-96486995D01*
X68096777Y-96549000D01*
X67987297Y-96549000D01*
X67821147Y-96582049D01*
X67664637Y-96646878D01*
X67523782Y-96740995D01*
X67403995Y-96860782D01*
X67309878Y-97001637D01*
X67280403Y-97072797D01*
X66637803Y-96430197D01*
X66618557Y-96414403D01*
X66596601Y-96402667D01*
X66572776Y-96395440D01*
X66548000Y-96393000D01*
X66523224Y-96395440D01*
X66499399Y-96402667D01*
X66477443Y-96414403D01*
X66458197Y-96430197D01*
X65188197Y-97700197D01*
X65172403Y-97719443D01*
X65160667Y-97741399D01*
X65153440Y-97765224D01*
X65151000Y-97790000D01*
X55322474Y-97790000D01*
X55216169Y-97680839D01*
X55031678Y-97553997D01*
X54825987Y-97465585D01*
X54607000Y-97419000D01*
X54316904Y-97419000D01*
X54323108Y-97404022D01*
X54360000Y-97218552D01*
X54360000Y-97029448D01*
X54323108Y-96843978D01*
X54250741Y-96669269D01*
X54203988Y-96599297D01*
X55175990Y-96599297D01*
X55175990Y-96768703D01*
X55209039Y-96934853D01*
X55273868Y-97091363D01*
X55367985Y-97232218D01*
X55487772Y-97352005D01*
X55628627Y-97446122D01*
X55785137Y-97510951D01*
X55951287Y-97544000D01*
X56120693Y-97544000D01*
X56286843Y-97510951D01*
X56443353Y-97446122D01*
X56584208Y-97352005D01*
X56703995Y-97232218D01*
X56798112Y-97091363D01*
X56862941Y-96934853D01*
X56895990Y-96768703D01*
X56895990Y-96599297D01*
X56862941Y-96433147D01*
X56798112Y-96276637D01*
X56703995Y-96135782D01*
X56584208Y-96015995D01*
X56443353Y-95921878D01*
X56286843Y-95857049D01*
X56120693Y-95824000D01*
X55951287Y-95824000D01*
X55785137Y-95857049D01*
X55628627Y-95921878D01*
X55487772Y-96015995D01*
X55367985Y-96135782D01*
X55273868Y-96276637D01*
X55209039Y-96433147D01*
X55175990Y-96599297D01*
X54203988Y-96599297D01*
X54145681Y-96512036D01*
X54011964Y-96378319D01*
X53854731Y-96273259D01*
X53680022Y-96200892D01*
X53494552Y-96164000D01*
X53305448Y-96164000D01*
X53119978Y-96200892D01*
X52945269Y-96273259D01*
X52788036Y-96378319D01*
X52654319Y-96512036D01*
X52549259Y-96669269D01*
X52476892Y-96843978D01*
X52440000Y-97029448D01*
X52440000Y-97218552D01*
X52476892Y-97404022D01*
X52549259Y-97578731D01*
X52628206Y-97696884D01*
X52487631Y-97841236D01*
X52365724Y-98029024D01*
X52285881Y-98252126D01*
X51144119Y-98252126D01*
X51064276Y-98029024D01*
X50942369Y-97841236D01*
X50786169Y-97680839D01*
X50601678Y-97553997D01*
X50395987Y-97465585D01*
X50177000Y-97419000D01*
X49877000Y-97419000D01*
X49623000Y-97419000D01*
X49323000Y-97419000D01*
X49104013Y-97465585D01*
X49060000Y-97484503D01*
X49060000Y-93399297D01*
X52722000Y-93399297D01*
X52722000Y-93568703D01*
X52755049Y-93734853D01*
X52819878Y-93891363D01*
X52913995Y-94032218D01*
X53033782Y-94152005D01*
X53171475Y-94244009D01*
X53045782Y-94327995D01*
X52925995Y-94447782D01*
X52831878Y-94588637D01*
X52767049Y-94745147D01*
X52734000Y-94911297D01*
X52734000Y-95080703D01*
X52767049Y-95246853D01*
X52831878Y-95403363D01*
X52925995Y-95544218D01*
X53045782Y-95664005D01*
X53186637Y-95758122D01*
X53343147Y-95822951D01*
X53509297Y-95856000D01*
X53678703Y-95856000D01*
X53844853Y-95822951D01*
X54001363Y-95758122D01*
X54096579Y-95694500D01*
X54321702Y-95694500D01*
X54356000Y-95697878D01*
X54390298Y-95694500D01*
X54390309Y-95694500D01*
X54492930Y-95684393D01*
X54624597Y-95644452D01*
X54745943Y-95579591D01*
X54852303Y-95492303D01*
X54874175Y-95465652D01*
X55318743Y-95021085D01*
X55371878Y-95149363D01*
X55465995Y-95290218D01*
X55585782Y-95410005D01*
X55726637Y-95504122D01*
X55883147Y-95568951D01*
X56049297Y-95602000D01*
X56218703Y-95602000D01*
X56384853Y-95568951D01*
X56541363Y-95504122D01*
X56682218Y-95410005D01*
X56802005Y-95290218D01*
X56896122Y-95149363D01*
X56960951Y-94992853D01*
X56994000Y-94826703D01*
X56994000Y-94657297D01*
X56960951Y-94491147D01*
X56896122Y-94334637D01*
X56828878Y-94234000D01*
X56885475Y-94149297D01*
X80420000Y-94149297D01*
X80420000Y-94318703D01*
X80453049Y-94484853D01*
X80517878Y-94641363D01*
X80611995Y-94782218D01*
X80731782Y-94902005D01*
X80872637Y-94996122D01*
X81029147Y-95060951D01*
X81195297Y-95094000D01*
X81364703Y-95094000D01*
X81530853Y-95060951D01*
X81687363Y-94996122D01*
X81828218Y-94902005D01*
X81948005Y-94782218D01*
X82042122Y-94641363D01*
X82106951Y-94484853D01*
X82140000Y-94318703D01*
X82140000Y-94149297D01*
X82106951Y-93983147D01*
X82042122Y-93826637D01*
X81948005Y-93685782D01*
X81828218Y-93565995D01*
X81687363Y-93471878D01*
X81530853Y-93407049D01*
X81364703Y-93374000D01*
X81195297Y-93374000D01*
X81029147Y-93407049D01*
X80872637Y-93471878D01*
X80731782Y-93565995D01*
X80611995Y-93685782D01*
X80517878Y-93826637D01*
X80453049Y-93983147D01*
X80420000Y-94149297D01*
X56885475Y-94149297D01*
X56896122Y-94133363D01*
X56960951Y-93976853D01*
X56994000Y-93810703D01*
X56994000Y-93641297D01*
X56960951Y-93475147D01*
X56896122Y-93318637D01*
X56816381Y-93199297D01*
X61878000Y-93199297D01*
X61878000Y-93368703D01*
X61911049Y-93534853D01*
X61975878Y-93691363D01*
X62069995Y-93832218D01*
X62189782Y-93952005D01*
X62330637Y-94046122D01*
X62487147Y-94110951D01*
X62653297Y-94144000D01*
X62822703Y-94144000D01*
X62988853Y-94110951D01*
X63145363Y-94046122D01*
X63286218Y-93952005D01*
X63406005Y-93832218D01*
X63500122Y-93691363D01*
X63564951Y-93534853D01*
X63598000Y-93368703D01*
X63598000Y-93199297D01*
X63564951Y-93033147D01*
X63500122Y-92876637D01*
X63406005Y-92735782D01*
X63286218Y-92615995D01*
X63145363Y-92521878D01*
X62988853Y-92457049D01*
X62822703Y-92424000D01*
X62653297Y-92424000D01*
X62487147Y-92457049D01*
X62330637Y-92521878D01*
X62189782Y-92615995D01*
X62069995Y-92735782D01*
X61975878Y-92876637D01*
X61911049Y-93033147D01*
X61878000Y-93199297D01*
X56816381Y-93199297D01*
X56802005Y-93177782D01*
X56682218Y-93057995D01*
X56541363Y-92963878D01*
X56384853Y-92899049D01*
X56218703Y-92866000D01*
X56049297Y-92866000D01*
X55883147Y-92899049D01*
X55726637Y-92963878D01*
X55635130Y-93025021D01*
X55625999Y-93024122D01*
X55591701Y-93027500D01*
X55591691Y-93027500D01*
X55489070Y-93037607D01*
X55357403Y-93077548D01*
X55357401Y-93077549D01*
X55236056Y-93142409D01*
X55156345Y-93207826D01*
X55156337Y-93207834D01*
X55129697Y-93229697D01*
X55107833Y-93256338D01*
X54078652Y-94285521D01*
X54004525Y-94235991D01*
X54130218Y-94152005D01*
X54250005Y-94032218D01*
X54344122Y-93891363D01*
X54408951Y-93734853D01*
X54442000Y-93568703D01*
X54442000Y-93399297D01*
X54408951Y-93233147D01*
X54344122Y-93076637D01*
X54250005Y-92935782D01*
X54130218Y-92815995D01*
X53989363Y-92721878D01*
X53832853Y-92657049D01*
X53666703Y-92624000D01*
X53497297Y-92624000D01*
X53331147Y-92657049D01*
X53174637Y-92721878D01*
X53033782Y-92815995D01*
X52913995Y-92935782D01*
X52819878Y-93076637D01*
X52755049Y-93233147D01*
X52722000Y-93399297D01*
X49060000Y-93399297D01*
X49060000Y-90983497D01*
X49104013Y-91002415D01*
X49323000Y-91049000D01*
X49623000Y-91049000D01*
X49623000Y-90041000D01*
X49877000Y-90041000D01*
X49877000Y-91049000D01*
X50177000Y-91049000D01*
X50395987Y-91002415D01*
X50601678Y-90914003D01*
X50786169Y-90787161D01*
X50942369Y-90626764D01*
X51064276Y-90438976D01*
X51144119Y-90215874D01*
X52285881Y-90215874D01*
X52365724Y-90438976D01*
X52487631Y-90626764D01*
X52628206Y-90771116D01*
X52549259Y-90889269D01*
X52476892Y-91063978D01*
X52440000Y-91249448D01*
X52440000Y-91438552D01*
X52476892Y-91624022D01*
X52549259Y-91798731D01*
X52654319Y-91955964D01*
X52788036Y-92089681D01*
X52945269Y-92194741D01*
X53119978Y-92267108D01*
X53305448Y-92304000D01*
X53494552Y-92304000D01*
X53680022Y-92267108D01*
X53854731Y-92194741D01*
X54011964Y-92089681D01*
X54145681Y-91955964D01*
X54250741Y-91798731D01*
X54297935Y-91684793D01*
X55095496Y-91684793D01*
X55095496Y-91854199D01*
X55128545Y-92020349D01*
X55193374Y-92176859D01*
X55287491Y-92317714D01*
X55407278Y-92437501D01*
X55548133Y-92531618D01*
X55704643Y-92596447D01*
X55870793Y-92629496D01*
X56040199Y-92629496D01*
X56206349Y-92596447D01*
X56362859Y-92531618D01*
X56503714Y-92437501D01*
X56623501Y-92317714D01*
X56717618Y-92176859D01*
X56782447Y-92020349D01*
X56815496Y-91854199D01*
X56815496Y-91684793D01*
X56782447Y-91518643D01*
X56717618Y-91362133D01*
X56623501Y-91221278D01*
X56503714Y-91101491D01*
X56362859Y-91007374D01*
X56206349Y-90942545D01*
X56040199Y-90909496D01*
X55870793Y-90909496D01*
X55704643Y-90942545D01*
X55548133Y-91007374D01*
X55407278Y-91101491D01*
X55287491Y-91221278D01*
X55193374Y-91362133D01*
X55128545Y-91518643D01*
X55095496Y-91684793D01*
X54297935Y-91684793D01*
X54323108Y-91624022D01*
X54360000Y-91438552D01*
X54360000Y-91249448D01*
X54323108Y-91063978D01*
X54316904Y-91049000D01*
X54607000Y-91049000D01*
X54825987Y-91002415D01*
X55031678Y-90914003D01*
X55216169Y-90787161D01*
X55372369Y-90626764D01*
X55394094Y-90593297D01*
X65370500Y-90593297D01*
X65370500Y-90762703D01*
X65403549Y-90928853D01*
X65468378Y-91085363D01*
X65562495Y-91226218D01*
X65649277Y-91313000D01*
X65562495Y-91399782D01*
X65468378Y-91540637D01*
X65403549Y-91697147D01*
X65370500Y-91863297D01*
X65370500Y-92032703D01*
X65403549Y-92198853D01*
X65468378Y-92355363D01*
X65562495Y-92496218D01*
X65682282Y-92616005D01*
X65823137Y-92710122D01*
X65979647Y-92774951D01*
X66145797Y-92808000D01*
X66315203Y-92808000D01*
X66481353Y-92774951D01*
X66637863Y-92710122D01*
X66778718Y-92616005D01*
X66898505Y-92496218D01*
X66992622Y-92355363D01*
X67027124Y-92272069D01*
X67052853Y-92266951D01*
X67209363Y-92202122D01*
X67350218Y-92108005D01*
X67470005Y-91988218D01*
X67564122Y-91847363D01*
X67628951Y-91690853D01*
X67662000Y-91524703D01*
X67662000Y-91355297D01*
X67628951Y-91189147D01*
X67564122Y-91032637D01*
X67470005Y-90891782D01*
X67350218Y-90771995D01*
X67209363Y-90677878D01*
X67090500Y-90628643D01*
X67090500Y-90593297D01*
X67089539Y-90588468D01*
X67096218Y-90584005D01*
X67216005Y-90464218D01*
X67310122Y-90323363D01*
X67374951Y-90166853D01*
X67408000Y-90000703D01*
X67408000Y-89831297D01*
X67374951Y-89665147D01*
X67310122Y-89508637D01*
X67303590Y-89498862D01*
X67433853Y-89472951D01*
X67590363Y-89408122D01*
X67731218Y-89314005D01*
X67851005Y-89194218D01*
X67945122Y-89053363D01*
X68009951Y-88896853D01*
X68043000Y-88730703D01*
X68043000Y-88561297D01*
X68042399Y-88558275D01*
X68739022Y-88558275D01*
X68739022Y-88727681D01*
X68772071Y-88893831D01*
X68836900Y-89050341D01*
X68931017Y-89191196D01*
X69050804Y-89310983D01*
X69191659Y-89405100D01*
X69348169Y-89469929D01*
X69514319Y-89502978D01*
X69683725Y-89502978D01*
X69849875Y-89469929D01*
X70006385Y-89405100D01*
X70147240Y-89310983D01*
X70267027Y-89191196D01*
X70361144Y-89050341D01*
X70425973Y-88893831D01*
X70459022Y-88727681D01*
X70459022Y-88558275D01*
X70425973Y-88392125D01*
X70361144Y-88235615D01*
X70334751Y-88196114D01*
X70498183Y-88196114D01*
X70498183Y-88365520D01*
X70531232Y-88531670D01*
X70596061Y-88688180D01*
X70690178Y-88829035D01*
X70809965Y-88948822D01*
X70950820Y-89042939D01*
X71107330Y-89107768D01*
X71273480Y-89140817D01*
X71442886Y-89140817D01*
X71609036Y-89107768D01*
X71765546Y-89042939D01*
X71906401Y-88948822D01*
X72026188Y-88829035D01*
X72120305Y-88688180D01*
X72185134Y-88531670D01*
X72204502Y-88434297D01*
X74324000Y-88434297D01*
X74324000Y-88603703D01*
X74357049Y-88769853D01*
X74421878Y-88926363D01*
X74515995Y-89067218D01*
X74635782Y-89187005D01*
X74776637Y-89281122D01*
X74933147Y-89345951D01*
X75099297Y-89379000D01*
X75268703Y-89379000D01*
X75434853Y-89345951D01*
X75591363Y-89281122D01*
X75732218Y-89187005D01*
X75852005Y-89067218D01*
X75946122Y-88926363D01*
X76010951Y-88769853D01*
X76030433Y-88671908D01*
X76039995Y-88686218D01*
X76159782Y-88806005D01*
X76300637Y-88900122D01*
X76432143Y-88954594D01*
X76371537Y-89045296D01*
X76306708Y-89201806D01*
X76273659Y-89367956D01*
X76273659Y-89537362D01*
X76306708Y-89703512D01*
X76371537Y-89860022D01*
X76465654Y-90000877D01*
X76585441Y-90120664D01*
X76726296Y-90214781D01*
X76882806Y-90279610D01*
X77048956Y-90312659D01*
X77218362Y-90312659D01*
X77384512Y-90279610D01*
X77541022Y-90214781D01*
X77681877Y-90120664D01*
X77778801Y-90023740D01*
X83351000Y-90023740D01*
X83351000Y-90316260D01*
X83408068Y-90603158D01*
X83520010Y-90873411D01*
X83682525Y-91116632D01*
X83889368Y-91323475D01*
X84063760Y-91440000D01*
X83889368Y-91556525D01*
X83682525Y-91763368D01*
X83520010Y-92006589D01*
X83408068Y-92276842D01*
X83351000Y-92563740D01*
X83351000Y-92856260D01*
X83408068Y-93143158D01*
X83520010Y-93413411D01*
X83682525Y-93656632D01*
X83889368Y-93863475D01*
X84063760Y-93980000D01*
X83889368Y-94096525D01*
X83682525Y-94303368D01*
X83520010Y-94546589D01*
X83408068Y-94816842D01*
X83351000Y-95103740D01*
X83351000Y-95396260D01*
X83408068Y-95683158D01*
X83520010Y-95953411D01*
X83682525Y-96196632D01*
X83889368Y-96403475D01*
X84071534Y-96525195D01*
X83954645Y-96594822D01*
X83738412Y-96789731D01*
X83564359Y-97023080D01*
X83439175Y-97285901D01*
X83394524Y-97433110D01*
X83515845Y-97663000D01*
X84709000Y-97663000D01*
X84709000Y-97643000D01*
X84963000Y-97643000D01*
X84963000Y-97663000D01*
X86156155Y-97663000D01*
X86166025Y-97644297D01*
X95406000Y-97644297D01*
X95406000Y-97813703D01*
X95439049Y-97979853D01*
X95503878Y-98136363D01*
X95597995Y-98277218D01*
X95717782Y-98397005D01*
X95858637Y-98491122D01*
X96015147Y-98555951D01*
X96181297Y-98589000D01*
X96350703Y-98589000D01*
X96516853Y-98555951D01*
X96673363Y-98491122D01*
X96814218Y-98397005D01*
X96934005Y-98277218D01*
X97028122Y-98136363D01*
X97092951Y-97979853D01*
X97126000Y-97813703D01*
X97126000Y-97644297D01*
X97092951Y-97478147D01*
X97028122Y-97321637D01*
X96934005Y-97180782D01*
X96814218Y-97060995D01*
X96673363Y-96966878D01*
X96516853Y-96902049D01*
X96350703Y-96869000D01*
X96181297Y-96869000D01*
X96015147Y-96902049D01*
X95858637Y-96966878D01*
X95717782Y-97060995D01*
X95597995Y-97180782D01*
X95503878Y-97321637D01*
X95439049Y-97478147D01*
X95406000Y-97644297D01*
X86166025Y-97644297D01*
X86277476Y-97433110D01*
X86232825Y-97285901D01*
X86107641Y-97023080D01*
X85933588Y-96789731D01*
X85717355Y-96594822D01*
X85600466Y-96525195D01*
X85782632Y-96403475D01*
X85989475Y-96196632D01*
X86151990Y-95953411D01*
X86263932Y-95683158D01*
X86321000Y-95396260D01*
X86321000Y-95103740D01*
X86263932Y-94816842D01*
X86151990Y-94546589D01*
X85989475Y-94303368D01*
X85782632Y-94096525D01*
X85608240Y-93980000D01*
X85782632Y-93863475D01*
X85989475Y-93656632D01*
X86151990Y-93413411D01*
X86263932Y-93143158D01*
X86321000Y-92856260D01*
X86321000Y-92563740D01*
X86263932Y-92276842D01*
X86197847Y-92117297D01*
X95406000Y-92117297D01*
X95406000Y-92286703D01*
X95439049Y-92452853D01*
X95503878Y-92609363D01*
X95597995Y-92750218D01*
X95621277Y-92773500D01*
X95597995Y-92796782D01*
X95503878Y-92937637D01*
X95439049Y-93094147D01*
X95406000Y-93260297D01*
X95406000Y-93429703D01*
X95439049Y-93595853D01*
X95503878Y-93752363D01*
X95593840Y-93887000D01*
X95503878Y-94021637D01*
X95439049Y-94178147D01*
X95406000Y-94344297D01*
X95406000Y-94513703D01*
X95439049Y-94679853D01*
X95503878Y-94836363D01*
X95597995Y-94977218D01*
X95599777Y-94979000D01*
X95597995Y-94980782D01*
X95503878Y-95121637D01*
X95439049Y-95278147D01*
X95406000Y-95444297D01*
X95406000Y-95613703D01*
X95439049Y-95779853D01*
X95503878Y-95936363D01*
X95597995Y-96077218D01*
X95717782Y-96197005D01*
X95858637Y-96291122D01*
X96015147Y-96355951D01*
X96181297Y-96389000D01*
X96350703Y-96389000D01*
X96516853Y-96355951D01*
X96673363Y-96291122D01*
X96814218Y-96197005D01*
X96934005Y-96077218D01*
X97028122Y-95936363D01*
X97092951Y-95779853D01*
X97126000Y-95613703D01*
X97126000Y-95444297D01*
X97092951Y-95278147D01*
X97028122Y-95121637D01*
X96934005Y-94980782D01*
X96932223Y-94979000D01*
X96934005Y-94977218D01*
X97028122Y-94836363D01*
X97092951Y-94679853D01*
X97126000Y-94513703D01*
X97126000Y-94344297D01*
X97092951Y-94178147D01*
X97028122Y-94021637D01*
X96938160Y-93887000D01*
X97028122Y-93752363D01*
X97092951Y-93595853D01*
X97126000Y-93429703D01*
X97126000Y-93260297D01*
X97092951Y-93094147D01*
X97028122Y-92937637D01*
X96934005Y-92796782D01*
X96910723Y-92773500D01*
X96934005Y-92750218D01*
X97028122Y-92609363D01*
X97092951Y-92452853D01*
X97126000Y-92286703D01*
X97126000Y-92117297D01*
X97092951Y-91951147D01*
X97028122Y-91794637D01*
X96934005Y-91653782D01*
X96814218Y-91533995D01*
X96673363Y-91439878D01*
X96516853Y-91375049D01*
X96350703Y-91342000D01*
X96181297Y-91342000D01*
X96015147Y-91375049D01*
X95858637Y-91439878D01*
X95717782Y-91533995D01*
X95597995Y-91653782D01*
X95503878Y-91794637D01*
X95439049Y-91951147D01*
X95406000Y-92117297D01*
X86197847Y-92117297D01*
X86151990Y-92006589D01*
X85989475Y-91763368D01*
X85782632Y-91556525D01*
X85608240Y-91440000D01*
X85782632Y-91323475D01*
X85989475Y-91116632D01*
X86151990Y-90873411D01*
X86263932Y-90603158D01*
X86321000Y-90316260D01*
X86321000Y-90023740D01*
X86263932Y-89736842D01*
X86151990Y-89466589D01*
X85989475Y-89223368D01*
X85782632Y-89016525D01*
X85539411Y-88854010D01*
X85269158Y-88742068D01*
X84982260Y-88685000D01*
X84689740Y-88685000D01*
X84402842Y-88742068D01*
X84132589Y-88854010D01*
X83889368Y-89016525D01*
X83682525Y-89223368D01*
X83520010Y-89466589D01*
X83408068Y-89736842D01*
X83351000Y-90023740D01*
X77778801Y-90023740D01*
X77801664Y-90000877D01*
X77895781Y-89860022D01*
X77960610Y-89703512D01*
X77993659Y-89537362D01*
X77993659Y-89370664D01*
X78011005Y-89353318D01*
X78105122Y-89212463D01*
X78169951Y-89055953D01*
X78203000Y-88889803D01*
X78203000Y-88720397D01*
X78169951Y-88554247D01*
X78105122Y-88397737D01*
X78011005Y-88256882D01*
X77891218Y-88137095D01*
X77750363Y-88042978D01*
X77593853Y-87978149D01*
X77551371Y-87969699D01*
X77534951Y-87887147D01*
X77470122Y-87730637D01*
X77376005Y-87589782D01*
X77256218Y-87469995D01*
X77115363Y-87375878D01*
X76958853Y-87311049D01*
X76792703Y-87278000D01*
X76623297Y-87278000D01*
X76457147Y-87311049D01*
X76300637Y-87375878D01*
X76159782Y-87469995D01*
X76039995Y-87589782D01*
X75945878Y-87730637D01*
X75881049Y-87887147D01*
X75861567Y-87985092D01*
X75852005Y-87970782D01*
X75732218Y-87850995D01*
X75591363Y-87756878D01*
X75434853Y-87692049D01*
X75268703Y-87659000D01*
X75099297Y-87659000D01*
X74933147Y-87692049D01*
X74776637Y-87756878D01*
X74635782Y-87850995D01*
X74515995Y-87970782D01*
X74421878Y-88111637D01*
X74357049Y-88268147D01*
X74324000Y-88434297D01*
X72204502Y-88434297D01*
X72218183Y-88365520D01*
X72218183Y-88196114D01*
X72185134Y-88029964D01*
X72120305Y-87873454D01*
X72026188Y-87732599D01*
X71906401Y-87612812D01*
X71765546Y-87518695D01*
X71609036Y-87453866D01*
X71442886Y-87420817D01*
X71273480Y-87420817D01*
X71107330Y-87453866D01*
X70950820Y-87518695D01*
X70809965Y-87612812D01*
X70690178Y-87732599D01*
X70596061Y-87873454D01*
X70531232Y-88029964D01*
X70498183Y-88196114D01*
X70334751Y-88196114D01*
X70267027Y-88094760D01*
X70147240Y-87974973D01*
X70006385Y-87880856D01*
X69849875Y-87816027D01*
X69683725Y-87782978D01*
X69514319Y-87782978D01*
X69348169Y-87816027D01*
X69191659Y-87880856D01*
X69050804Y-87974973D01*
X68931017Y-88094760D01*
X68836900Y-88235615D01*
X68772071Y-88392125D01*
X68739022Y-88558275D01*
X68042399Y-88558275D01*
X68009951Y-88395147D01*
X67945122Y-88238637D01*
X67851005Y-88097782D01*
X67731218Y-87977995D01*
X67590363Y-87883878D01*
X67433853Y-87819049D01*
X67267703Y-87786000D01*
X67098297Y-87786000D01*
X66932147Y-87819049D01*
X66775637Y-87883878D01*
X66634782Y-87977995D01*
X66514995Y-88097782D01*
X66420878Y-88238637D01*
X66356049Y-88395147D01*
X66323000Y-88561297D01*
X66323000Y-88730703D01*
X66356049Y-88896853D01*
X66420878Y-89053363D01*
X66427410Y-89063138D01*
X66297147Y-89089049D01*
X66140637Y-89153878D01*
X65999782Y-89247995D01*
X65879995Y-89367782D01*
X65785878Y-89508637D01*
X65721049Y-89665147D01*
X65688000Y-89831297D01*
X65688000Y-90000703D01*
X65688961Y-90005532D01*
X65682282Y-90009995D01*
X65562495Y-90129782D01*
X65468378Y-90270637D01*
X65403549Y-90427147D01*
X65370500Y-90593297D01*
X55394094Y-90593297D01*
X55494276Y-90438976D01*
X55574119Y-90215874D01*
X55447954Y-90041000D01*
X54057000Y-90041000D01*
X54057000Y-90061000D01*
X53803000Y-90061000D01*
X53803000Y-90041000D01*
X52412046Y-90041000D01*
X52285881Y-90215874D01*
X51144119Y-90215874D01*
X51017954Y-90041000D01*
X49877000Y-90041000D01*
X49623000Y-90041000D01*
X49603000Y-90041000D01*
X49603000Y-89787000D01*
X49623000Y-89787000D01*
X49623000Y-88779000D01*
X49877000Y-88779000D01*
X49877000Y-89787000D01*
X51017954Y-89787000D01*
X51144119Y-89612126D01*
X52285881Y-89612126D01*
X52412046Y-89787000D01*
X53803000Y-89787000D01*
X53803000Y-88779000D01*
X54057000Y-88779000D01*
X54057000Y-89787000D01*
X55447954Y-89787000D01*
X55574119Y-89612126D01*
X55494276Y-89389024D01*
X55372369Y-89201236D01*
X55216169Y-89040839D01*
X55031678Y-88913997D01*
X54825987Y-88825585D01*
X54607000Y-88779000D01*
X54057000Y-88779000D01*
X53803000Y-88779000D01*
X53253000Y-88779000D01*
X53034013Y-88825585D01*
X52828322Y-88913997D01*
X52643831Y-89040839D01*
X52487631Y-89201236D01*
X52365724Y-89389024D01*
X52285881Y-89612126D01*
X51144119Y-89612126D01*
X51064276Y-89389024D01*
X50942369Y-89201236D01*
X50786169Y-89040839D01*
X50601678Y-88913997D01*
X50395987Y-88825585D01*
X50177000Y-88779000D01*
X49877000Y-88779000D01*
X49623000Y-88779000D01*
X49323000Y-88779000D01*
X49104013Y-88825585D01*
X49060000Y-88844503D01*
X49060000Y-86815128D01*
X49129740Y-86829000D01*
X49422260Y-86829000D01*
X49709158Y-86771932D01*
X49979411Y-86659990D01*
X50222632Y-86497475D01*
X50429475Y-86290632D01*
X50546000Y-86116240D01*
X50662525Y-86290632D01*
X50869368Y-86497475D01*
X51112589Y-86659990D01*
X51382842Y-86771932D01*
X51669740Y-86829000D01*
X51962260Y-86829000D01*
X52249158Y-86771932D01*
X52519411Y-86659990D01*
X52762632Y-86497475D01*
X52969475Y-86290632D01*
X53091195Y-86108466D01*
X53160822Y-86225355D01*
X53355731Y-86441588D01*
X53589080Y-86615641D01*
X53851901Y-86740825D01*
X53999110Y-86785476D01*
X54229000Y-86664155D01*
X54229000Y-85471000D01*
X54209000Y-85471000D01*
X54209000Y-85217000D01*
X54229000Y-85217000D01*
X54229000Y-85197000D01*
X54483000Y-85197000D01*
X54483000Y-85217000D01*
%TD*%
M02*
