M48
; DRILL file {KiCad (5.1.6)-1} date 07/03/22 21:07:20
; FORMAT={-:-/ absolute / inch / decimal}
; #@! TF.CreationDate,2022-07-03T21:07:20+08:00
; #@! TF.GenerationSoftware,Kicad,Pcbnew,(5.1.6)-1
; #@! TF.FileFunction,Plated,1,4,PTH
FMAT,2
INCH
T1C0.0118
T2C0.0236
T3C0.0394
%
G90
G05
T1
X2.1095Y-3.6805
X2.11Y-3.74
X2.203Y-3.613
X2.2061Y-3.8065
X2.21Y-3.69
X2.21Y-3.73
X2.27Y-3.69
X2.27Y-3.73
X2.3318Y-3.9032
X2.46Y-3.82
X2.47Y-3.6726
X2.48Y-3.93
X2.5675Y-3.8925
X2.585Y-3.99
X2.6075Y-3.57
X2.6075Y-3.62
X2.62Y-3.54
X2.63Y-3.6
X2.645Y-3.49
X2.645Y-3.525
X2.68Y-3.4915
X2.68Y-3.835
X2.705Y-3.825
X2.725Y-3.865
X2.725Y-3.97
X2.7401Y-3.4899
X2.745Y-3.885
X2.765Y-3.905
X2.786Y-3.925
X2.8094Y-3.4756
X2.83Y-3.955
X2.89Y-3.505
X2.89Y-3.915
X2.96Y-3.485
X2.97Y-3.97
X3.0175Y-3.8775
X3.02Y-3.47
X3.0368Y-3.5218
X3.045Y-3.4963
X3.095Y-3.71
X3.1Y-3.95
X3.1165Y-3.8385
X3.2Y-3.71
X3.556Y-3.484
X3.79Y-3.63
X3.79Y-3.675
X3.79Y-3.7177
X3.79Y-3.761
X3.79Y-3.8043
X3.79Y-3.8476
T3
X3.34Y-3.55
X3.34Y-3.65
X3.34Y-3.75
X3.34Y-3.85
X1.94Y-3.36
X2.04Y-3.36
X2.14Y-3.36
X2.24Y-3.36
X2.34Y-3.36
X2.44Y-3.36
X2.54Y-3.36
X2.64Y-3.36
X2.74Y-3.36
X2.84Y-3.36
X2.94Y-3.36
X3.04Y-3.36
X3.14Y-3.36
X3.24Y-3.36
X3.34Y-3.36
X3.44Y-3.36
X3.54Y-3.36
X3.64Y-3.36
X3.74Y-3.36
X3.84Y-3.36
X1.94Y-4.06
X2.04Y-4.06
X2.14Y-4.06
X2.24Y-4.06
X2.34Y-4.06
X2.44Y-4.06
X2.54Y-4.06
X2.64Y-4.06
X2.74Y-4.06
X2.84Y-4.06
X2.94Y-4.06
X3.04Y-4.06
X3.14Y-4.06
X3.24Y-4.06
X3.34Y-4.06
X3.44Y-4.06
X3.54Y-4.06
X3.64Y-4.06
X3.74Y-4.06
X3.84Y-4.06
T2
G00X1.9705Y-3.5399
M15
G01X1.9469Y-3.5399
M16
G05
G00X1.9705Y-3.8801
M15
G01X1.9469Y-3.8801
M16
G05
G00X2.1449Y-3.5399
M15
G01X2.1016Y-3.5399
M16
G05
G00X2.1449Y-3.8801
M15
G01X2.1016Y-3.8801
M16
G05
T0
M30
