%TF.GenerationSoftware,KiCad,Pcbnew,(5.1.6)-1*%
%TF.CreationDate,2022-07-30T19:59:52+08:00*%
%TF.ProjectId,cloneduino_zero,636c6f6e-6564-4756-996e-6f5f7a65726f,1.0*%
%TF.SameCoordinates,Original*%
%TF.FileFunction,Soldermask,Bot*%
%TF.FilePolarity,Negative*%
%FSLAX46Y46*%
G04 Gerber Fmt 4.6, Leading zero omitted, Abs format (unit mm)*
G04 Created by KiCad (PCBNEW (5.1.6)-1) date 2022-07-30 19:59:52*
%MOMM*%
%LPD*%
G01*
G04 APERTURE LIST*
%ADD10R,1.800000X1.800000*%
%ADD11C,0.100000*%
%ADD12O,1.800000X1.800000*%
%ADD13C,1.800000*%
%ADD14O,2.200000X1.100000*%
%ADD15C,0.750000*%
%ADD16O,1.700000X1.100000*%
G04 APERTURE END LIST*
D10*
%TO.C,J7*%
X49276000Y-83058000D03*
X51816000Y-83058000D03*
X54356000Y-83058000D03*
X56896000Y-83058000D03*
X59436000Y-83058000D03*
X61976000Y-83058000D03*
X64516000Y-83058000D03*
X67056000Y-83058000D03*
X69596000Y-83058000D03*
X72136000Y-83058000D03*
D11*
G36*
X73776000Y-82158000D02*
G01*
X75576000Y-82158000D01*
X75576000Y-83958000D01*
X73776000Y-83958000D01*
X73776000Y-82158000D01*
G37*
D10*
X77216000Y-83058000D03*
X79756000Y-83058000D03*
X82296000Y-83058000D03*
X84836000Y-83058000D03*
X87376000Y-83058000D03*
X89916000Y-83058000D03*
X92456000Y-83058000D03*
X94996000Y-83058000D03*
X97536000Y-83058000D03*
%TD*%
%TO.C,J6*%
X97536000Y-105410000D03*
X94996000Y-105410000D03*
X92456000Y-105410000D03*
X89916000Y-105410000D03*
X87376000Y-105410000D03*
X84836000Y-105410000D03*
X82296000Y-105410000D03*
X79756000Y-105410000D03*
X77216000Y-105410000D03*
X74676000Y-105410000D03*
X72136000Y-105410000D03*
X69596000Y-105410000D03*
X67056000Y-105410000D03*
X64516000Y-105410000D03*
X61976000Y-105410000D03*
X59436000Y-105410000D03*
X56896000Y-105410000D03*
X54356000Y-105410000D03*
X51816000Y-105410000D03*
X49276000Y-105410000D03*
%TD*%
D12*
%TO.C,J4*%
X49276000Y-85344000D03*
X51816000Y-85344000D03*
X54356000Y-85344000D03*
X56896000Y-85344000D03*
X59436000Y-85344000D03*
X61976000Y-85344000D03*
X64516000Y-85344000D03*
X67056000Y-85344000D03*
X69596000Y-85344000D03*
X72136000Y-85344000D03*
X74676000Y-85344000D03*
X77216000Y-85344000D03*
X79756000Y-85344000D03*
X82296000Y-85344000D03*
X84836000Y-85344000D03*
X87376000Y-85344000D03*
X89916000Y-85344000D03*
X92456000Y-85344000D03*
X94996000Y-85344000D03*
D13*
X97536000Y-85344000D03*
%TD*%
D14*
%TO.C,J1*%
X53930000Y-98554000D03*
X53930000Y-89914000D03*
D15*
X53400000Y-91344000D03*
D16*
X49750000Y-89914000D03*
D15*
X53400000Y-97124000D03*
D16*
X49750000Y-98554000D03*
%TD*%
D12*
%TO.C,J5*%
X84836000Y-97790000D03*
X84836000Y-95250000D03*
X84836000Y-92710000D03*
D13*
X84836000Y-90170000D03*
%TD*%
D12*
%TO.C,J3*%
X97536000Y-103124000D03*
X94996000Y-103124000D03*
X92456000Y-103124000D03*
X89916000Y-103124000D03*
X87376000Y-103124000D03*
X84836000Y-103124000D03*
X82296000Y-103124000D03*
X79756000Y-103124000D03*
X77216000Y-103124000D03*
X74676000Y-103124000D03*
X72136000Y-103124000D03*
X69596000Y-103124000D03*
X67056000Y-103124000D03*
X64516000Y-103124000D03*
X61976000Y-103124000D03*
X59436000Y-103124000D03*
X56896000Y-103124000D03*
X54356000Y-103124000D03*
X51816000Y-103124000D03*
D13*
X49276000Y-103124000D03*
%TD*%
M02*
